<svg width="450" height="675" viewBox="0 0 450 675" fill="none" xmlns="http://www.w3.org/2000/svg">
<g clip-path="url(#clip0_543_187)">
<rect width="450" height="675" fill="#01002A"/>
<path d="M31.308 539.36C29.972 539.36 28.832 539.064 27.888 538.472C26.944 537.872 26.22 537.056 25.716 536.024C25.22 534.992 24.968 533.824 24.96 532.52C24.968 531.192 25.228 530.016 25.74 528.992C26.26 527.96 26.996 527.152 27.948 526.568C28.9 525.976 30.032 525.68 31.344 525.68C32.816 525.68 34.06 526.052 35.076 526.796C36.1 527.532 36.768 528.54 37.08 529.82L34.2 530.6C33.976 529.904 33.604 529.364 33.084 528.98C32.564 528.588 31.972 528.392 31.308 528.392C30.556 528.392 29.936 528.572 29.448 528.932C28.96 529.284 28.6 529.772 28.368 530.396C28.136 531.02 28.02 531.728 28.02 532.52C28.02 533.752 28.296 534.748 28.848 535.508C29.4 536.268 30.22 536.648 31.308 536.648C32.076 536.648 32.68 536.472 33.12 536.12C33.568 535.768 33.904 535.26 34.128 534.596L37.08 535.256C36.68 536.576 35.98 537.592 34.98 538.304C33.98 539.008 32.756 539.36 31.308 539.36ZM50.7167 526.04V539H47.9447V530.54L41.7767 539H39.4607V526.04H42.2327V534.284L48.4247 526.04H50.7167ZM61.8383 539V534.68H59.5223C59.2263 534.68 58.8543 534.672 58.4062 534.656C57.9663 534.64 57.5543 534.6 57.1703 534.536C56.1703 534.352 55.3423 533.916 54.6863 533.228C54.0303 532.532 53.7023 531.588 53.7023 530.396C53.7023 529.228 54.0143 528.288 54.6383 527.576C55.2623 526.864 56.0743 526.408 57.0743 526.208C57.4903 526.12 57.9183 526.072 58.3583 526.064C58.8063 526.048 59.1783 526.04 59.4743 526.04H64.7303V539H61.8383ZM53.3663 539L56.4623 534.044H59.4743L56.4023 539H53.3663ZM59.2223 532.412H61.8383V528.308H59.2223C59.0703 528.308 58.8863 528.316 58.6703 528.332C58.4543 528.348 58.2383 528.384 58.0223 528.44C57.7903 528.512 57.5703 528.636 57.3623 528.812C57.1543 528.988 56.9823 529.208 56.8463 529.472C56.7103 529.736 56.6423 530.036 56.6423 530.372C56.6423 530.876 56.7863 531.296 57.0743 531.632C57.3703 531.96 57.7143 532.18 58.1063 532.292C58.2983 532.34 58.4943 532.372 58.6943 532.388C58.9023 532.404 59.0783 532.412 59.2223 532.412ZM68.0544 539V526.04H70.9464V531.152H76.7664V526.04H79.6584V539H76.7664V533.864H70.9464V539H68.0544ZM94.2401 526.04V539H91.4681V530.54L85.3001 539H82.9841V526.04H85.7561V534.284L91.9481 526.04H94.2401ZM103.502 539.36C102.19 539.36 101.038 539.076 100.046 538.508C99.0537 537.94 98.2777 537.152 97.7177 536.144C97.1657 535.136 96.8897 533.976 96.8897 532.664C96.8897 531.248 97.1617 530.02 97.7057 528.98C98.2497 527.932 99.0057 527.12 99.9737 526.544C100.942 525.968 102.062 525.68 103.334 525.68C104.678 525.68 105.818 525.996 106.754 526.628C107.698 527.252 108.398 528.136 108.854 529.28C109.31 530.424 109.482 531.772 109.37 533.324H106.502V532.268C106.494 530.86 106.246 529.832 105.758 529.184C105.27 528.536 104.502 528.212 103.454 528.212C102.27 528.212 101.39 528.58 100.814 529.316C100.238 530.044 99.9497 531.112 99.9497 532.52C99.9497 533.832 100.238 534.848 100.814 535.568C101.39 536.288 102.23 536.648 103.334 536.648C104.046 536.648 104.658 536.492 105.17 536.18C105.69 535.86 106.09 535.4 106.37 534.8L109.226 535.664C108.73 536.832 107.962 537.74 106.922 538.388C105.89 539.036 104.75 539.36 103.502 539.36ZM99.0377 533.324V531.14H107.954V533.324H99.0377Z" fill="#73A9FF"/>
<path d="M230.73 484.25V481.826C231.202 481.914 231.566 481.906 231.822 481.802C232.078 481.69 232.27 481.482 232.398 481.178C232.526 480.874 232.638 480.47 232.734 479.966C232.862 479.254 232.974 478.434 233.07 477.506C233.174 476.578 233.262 475.586 233.334 474.53C233.414 473.474 233.486 472.394 233.55 471.29H243.09V484.25H240.21V474.002H236.094C236.054 474.522 236.006 475.106 235.95 475.754C235.894 476.394 235.834 477.042 235.77 477.698C235.706 478.354 235.634 478.978 235.554 479.57C235.482 480.154 235.406 480.654 235.326 481.07C235.142 482.006 234.878 482.746 234.534 483.29C234.198 483.834 233.726 484.182 233.118 484.334C232.51 484.494 231.714 484.466 230.73 484.25ZM253.349 469.286V466.646H255.989V469.286H253.349ZM248.393 469.286V466.646H251.033V469.286H248.393ZM252.353 484.61C251.041 484.61 249.889 484.326 248.897 483.758C247.905 483.19 247.129 482.402 246.569 481.394C246.017 480.386 245.741 479.226 245.741 477.914C245.741 476.498 246.013 475.27 246.557 474.23C247.101 473.182 247.857 472.37 248.825 471.794C249.793 471.218 250.913 470.93 252.185 470.93C253.529 470.93 254.669 471.246 255.605 471.878C256.549 472.502 257.249 473.386 257.705 474.53C258.161 475.674 258.333 477.022 258.221 478.574H255.353V477.518C255.345 476.11 255.097 475.082 254.609 474.434C254.121 473.786 253.353 473.462 252.305 473.462C251.121 473.462 250.241 473.83 249.665 474.566C249.089 475.294 248.801 476.362 248.801 477.77C248.801 479.082 249.089 480.098 249.665 480.818C250.241 481.538 251.081 481.898 252.185 481.898C252.897 481.898 253.509 481.742 254.021 481.43C254.541 481.11 254.941 480.65 255.221 480.05L258.077 480.914C257.581 482.082 256.813 482.99 255.773 483.638C254.741 484.286 253.601 484.61 252.353 484.61ZM247.889 478.574V476.39H256.805V478.574H247.889ZM259.939 487.13V481.982C260.643 481.982 261.143 481.742 261.439 481.262C261.735 480.782 261.971 479.95 262.147 478.766C262.259 478.062 262.351 477.318 262.423 476.534C262.495 475.75 262.555 474.922 262.603 474.05C262.659 473.178 262.707 472.258 262.747 471.29H272.395V481.982H273.703V487.13H270.967V484.25H262.663V487.13H259.939ZM263.815 481.982H269.515V473.558H265.279C265.255 474.038 265.227 474.53 265.195 475.034C265.163 475.53 265.127 476.026 265.087 476.522C265.047 477.018 265.003 477.494 264.955 477.95C264.915 478.398 264.867 478.814 264.811 479.198C264.723 479.87 264.615 480.422 264.487 480.854C264.359 481.286 264.135 481.662 263.815 481.982Z" fill="#73A9FF"/>
<path d="M245.361 498.25V491.511H248.425C248.645 491.511 248.851 491.523 249.043 491.548C249.234 491.573 249.398 491.604 249.536 491.642C249.86 491.738 250.147 491.925 250.397 492.203C250.646 492.478 250.771 492.859 250.771 493.345C250.771 493.632 250.725 493.87 250.634 494.057C250.542 494.24 250.422 494.394 250.272 494.518C250.201 494.577 250.128 494.627 250.054 494.668C249.979 494.71 249.904 494.743 249.829 494.768C249.991 494.793 250.145 494.841 250.291 494.912C250.52 495.024 250.711 495.19 250.865 495.411C251.023 495.631 251.102 495.941 251.102 496.341C251.102 496.794 250.992 497.177 250.771 497.489C250.555 497.797 250.237 498.011 249.816 498.131C249.663 498.173 249.486 498.204 249.286 498.225C249.086 498.242 248.883 498.25 248.675 498.25H245.361ZM246.884 497.089H248.568C248.656 497.089 248.752 497.081 248.856 497.064C248.96 497.048 249.053 497.025 249.136 496.996C249.286 496.942 249.394 496.846 249.461 496.709C249.532 496.571 249.567 496.428 249.567 496.278C249.567 496.074 249.515 495.912 249.411 495.791C249.311 495.667 249.19 495.583 249.049 495.542C248.966 495.509 248.874 495.49 248.774 495.486C248.679 495.477 248.6 495.473 248.537 495.473H246.884V497.089ZM246.884 494.294H248.132C248.261 494.294 248.385 494.288 248.506 494.275C248.631 494.258 248.735 494.231 248.818 494.194C248.955 494.14 249.055 494.048 249.118 493.919C249.184 493.79 249.217 493.647 249.217 493.489C249.217 493.322 249.18 493.173 249.105 493.04C249.034 492.902 248.92 492.811 248.762 492.765C248.658 492.723 248.531 492.701 248.381 492.696C248.236 492.692 248.142 492.69 248.1 492.69H246.884V494.294ZM252.339 498.25L252.332 491.511H253.836V493.757H254.591C254.778 493.757 254.989 493.761 255.221 493.77C255.459 493.778 255.656 493.797 255.814 493.826C256.193 493.909 256.515 494.042 256.781 494.225C257.052 494.408 257.258 494.647 257.399 494.943C257.541 495.238 257.611 495.594 257.611 496.01C257.611 496.605 257.457 497.081 257.15 497.439C256.842 497.792 256.411 498.034 255.858 498.163C255.696 498.2 255.494 498.225 255.253 498.238C255.011 498.246 254.797 498.25 254.61 498.25H252.339ZM253.836 497.071H254.741C254.833 497.071 254.934 497.066 255.047 497.058C255.159 497.05 255.265 497.031 255.365 497.002C255.552 496.952 255.719 496.84 255.864 496.665C256.01 496.486 256.083 496.268 256.083 496.01C256.083 495.739 256.01 495.517 255.864 495.342C255.719 495.167 255.54 495.053 255.328 494.999C255.228 494.974 255.126 494.957 255.022 494.949C254.922 494.941 254.828 494.937 254.741 494.937H253.836V497.071ZM258.317 498.25V491.511H259.82V498.25H258.317Z" fill="#73A9FF"/>
<path d="M39.78 75V36.12H46.287V54.156L61.812 36.12H69.804L53.091 55.182L70.938 75H62.676L46.287 56.856V75H39.78ZM89.0765 75.81C85.1885 75.81 81.8585 74.964 79.0865 73.272C76.3145 71.562 74.1815 69.186 72.6875 66.144C71.2115 63.102 70.4735 59.574 70.4735 55.56C70.4735 51.546 71.2115 48.018 72.6875 44.976C74.1815 41.934 76.3145 39.567 79.0865 37.875C81.8585 36.165 85.1885 35.31 89.0765 35.31C92.9645 35.31 96.2945 36.165 99.0665 37.875C101.857 39.567 103.99 41.934 105.466 44.976C106.96 48.018 107.707 51.546 107.707 55.56C107.707 59.574 106.96 63.102 105.466 66.144C103.99 69.186 101.857 71.562 99.0665 73.272C96.2945 74.964 92.9645 75.81 89.0765 75.81ZM89.0765 69.681C91.6865 69.699 93.8555 69.123 95.5835 67.953C97.3295 66.783 98.6345 65.136 99.4985 63.012C100.381 60.888 100.822 58.404 100.822 55.56C100.822 52.716 100.381 50.25 99.4985 48.162C98.6345 46.056 97.3295 44.418 95.5835 43.248C93.8555 42.078 91.6865 41.475 89.0765 41.439C86.4665 41.421 84.2975 41.997 82.5695 43.167C80.8415 44.337 79.5365 45.984 78.6545 48.108C77.7905 50.232 77.3585 52.716 77.3585 55.56C77.3585 58.404 77.7905 60.879 78.6545 62.985C79.5185 65.073 80.8145 66.702 82.5425 67.872C84.2885 69.042 86.4665 69.645 89.0765 69.681ZM113.621 75V36.12H120.128V68.898H137.3V75H113.621ZM141.874 75V36.12H154.267C154.591 36.12 155.23 36.129 156.184 36.147C157.156 36.165 158.092 36.228 158.992 36.336C162.07 36.732 164.671 37.83 166.795 39.63C168.937 41.412 170.557 43.689 171.655 46.461C172.753 49.233 173.302 52.266 173.302 55.56C173.302 58.854 172.753 61.887 171.655 64.659C170.557 67.431 168.937 69.717 166.795 71.517C164.671 73.299 162.07 74.388 158.992 74.784C158.11 74.892 157.183 74.955 156.211 74.973C155.239 74.991 154.591 75 154.267 75H141.874ZM148.489 68.871H154.267C154.807 68.871 155.491 68.853 156.319 68.817C157.165 68.781 157.912 68.7 158.56 68.574C160.396 68.232 161.89 67.413 163.042 66.117C164.194 64.821 165.04 63.246 165.58 61.392C166.138 59.538 166.417 57.594 166.417 55.56C166.417 53.454 166.138 51.474 165.58 49.62C165.022 47.766 164.158 46.209 162.988 44.949C161.836 43.689 160.36 42.888 158.56 42.546C157.912 42.402 157.165 42.321 156.319 42.303C155.491 42.267 154.807 42.249 154.267 42.249H148.489V68.871ZM239.369 75.81C235.481 75.81 232.151 74.964 229.379 73.272C226.607 71.562 224.474 69.186 222.98 66.144C221.504 63.102 220.766 59.574 220.766 55.56C220.766 51.546 221.504 48.018 222.98 44.976C224.474 41.934 226.607 39.567 229.379 37.875C232.151 36.165 235.481 35.31 239.369 35.31C243.851 35.31 247.586 36.435 250.574 38.685C253.562 40.917 255.659 43.932 256.865 47.73L250.304 49.539C249.548 47.001 248.261 45.021 246.443 43.599C244.625 42.159 242.267 41.439 239.369 41.439C236.759 41.439 234.581 42.024 232.835 43.194C231.107 44.364 229.802 46.011 228.92 48.135C228.056 50.241 227.615 52.716 227.597 55.56C227.597 58.404 228.029 60.888 228.893 63.012C229.775 65.118 231.089 66.756 232.835 67.926C234.581 69.096 236.759 69.681 239.369 69.681C242.267 69.681 244.625 68.961 246.443 67.521C248.261 66.081 249.548 64.101 250.304 61.581L256.865 63.39C255.659 67.188 253.562 70.212 250.574 72.462C247.586 74.694 243.851 75.81 239.369 75.81ZM262.794 75V36.12H287.904V42.222H269.301V51.807H284.664V57.909H269.301V68.898H287.904V75H262.794ZM294.382 75V36.12H300.241L313.687 63.66L327.133 36.12H332.992V75H326.917V50.079L314.983 75H312.391L300.484 50.079V75H294.382ZM340.523 75V36.12H347.03V49.701H356.588C356.948 49.701 357.434 49.719 358.046 49.755C358.658 49.773 359.216 49.827 359.72 49.917C361.952 50.259 363.797 51.006 365.255 52.158C366.731 53.31 367.82 54.768 368.522 56.532C369.242 58.278 369.602 60.213 369.602 62.337C369.602 64.479 369.242 66.432 368.522 68.196C367.82 69.942 366.731 71.391 365.255 72.543C363.797 73.695 361.952 74.442 359.72 74.784C359.216 74.856 358.658 74.91 358.046 74.946C357.452 74.982 356.966 75 356.588 75H340.523ZM347.03 68.898H356.318C356.696 68.898 357.101 68.88 357.533 68.844C357.983 68.808 358.406 68.745 358.802 68.655C359.864 68.385 360.701 67.908 361.313 67.224C361.943 66.54 362.384 65.766 362.636 64.902C362.906 64.02 363.041 63.165 363.041 62.337C363.041 61.509 362.906 60.663 362.636 59.799C362.384 58.935 361.943 58.161 361.313 57.477C360.701 56.793 359.864 56.316 358.802 56.046C358.406 55.938 357.983 55.866 357.533 55.83C357.101 55.794 356.696 55.776 356.318 55.776H347.03V68.898ZM403.62 75H397.14V61.419H387.096L384.315 61.176C381.003 60.636 378.546 59.232 376.944 56.964C375.342 54.678 374.541 51.951 374.541 48.783C374.541 46.641 374.901 44.697 375.621 42.951C376.341 41.187 377.43 39.729 378.888 38.577C380.346 37.425 382.2 36.678 384.45 36.336C384.972 36.246 385.521 36.192 386.097 36.174C386.691 36.138 387.177 36.12 387.555 36.12H403.62V75ZM381.291 75H373.92L382.344 57.72L388.959 59.178L381.291 75ZM397.14 55.344V42.222H387.825C387.465 42.222 387.06 42.24 386.61 42.276C386.16 42.294 385.746 42.357 385.368 42.465C384.288 42.735 383.433 43.212 382.803 43.896C382.191 44.58 381.759 45.363 381.507 46.245C381.255 47.109 381.129 47.955 381.129 48.783C381.129 49.611 381.255 50.457 381.507 51.321C381.759 52.185 382.191 52.959 382.803 53.643C383.433 54.327 384.288 54.804 385.368 55.074C385.746 55.182 386.16 55.254 386.61 55.29C387.06 55.326 387.465 55.344 387.825 55.344H397.14Z" fill="#73A9FF"/>
<path d="M122.768 169.25V165.2H123.671V166.797H125.49V165.2H126.394V169.25H125.49V167.645H123.671V169.25H122.768ZM128.573 169.363C128.281 169.363 128.033 169.308 127.831 169.197C127.628 169.085 127.474 168.936 127.369 168.751C127.267 168.566 127.216 168.362 127.216 168.14C127.216 167.945 127.248 167.77 127.313 167.615C127.378 167.457 127.478 167.322 127.613 167.21C127.748 167.095 127.923 167.001 128.138 166.929C128.301 166.876 128.491 166.829 128.708 166.786C128.928 166.744 129.166 166.705 129.421 166.67C129.678 166.632 129.947 166.592 130.227 166.55L129.904 166.734C129.907 166.454 129.844 166.247 129.717 166.115C129.589 165.982 129.374 165.916 129.072 165.916C128.889 165.916 128.713 165.959 128.543 166.044C128.373 166.129 128.254 166.275 128.187 166.482L127.362 166.224C127.462 165.881 127.652 165.606 127.932 165.399C128.214 165.191 128.594 165.087 129.072 165.087C129.432 165.087 129.748 165.146 130.021 165.264C130.296 165.381 130.499 165.574 130.632 165.841C130.704 165.984 130.748 166.13 130.763 166.28C130.778 166.427 130.786 166.589 130.786 166.764V169.25H129.994V168.372L130.126 168.515C129.943 168.807 129.729 169.022 129.484 169.16C129.242 169.295 128.938 169.363 128.573 169.363ZM128.753 168.642C128.958 168.642 129.133 168.606 129.278 168.534C129.423 168.461 129.538 168.372 129.623 168.267C129.711 168.162 129.769 168.064 129.799 167.971C129.847 167.856 129.873 167.725 129.878 167.577C129.886 167.427 129.889 167.306 129.889 167.214L130.167 167.296C129.894 167.339 129.661 167.376 129.466 167.409C129.271 167.441 129.103 167.472 128.963 167.502C128.823 167.53 128.699 167.561 128.592 167.596C128.487 167.634 128.398 167.677 128.326 167.727C128.253 167.777 128.197 167.835 128.157 167.9C128.119 167.965 128.101 168.041 128.101 168.129C128.101 168.229 128.126 168.317 128.176 168.395C128.226 168.47 128.298 168.53 128.393 168.575C128.491 168.62 128.611 168.642 128.753 168.642ZM131.754 169.25V165.2H132.621V168.447H133.764V165.2H134.631V168.447H135.774V165.2H136.641V169.25H131.754ZM140.977 169.363C140.572 169.363 140.219 169.271 139.916 169.089C139.614 168.906 139.379 168.655 139.211 168.335C139.046 168.012 138.964 167.642 138.964 167.225C138.964 166.8 139.049 166.427 139.219 166.107C139.389 165.787 139.625 165.537 139.927 165.357C140.23 165.177 140.58 165.087 140.977 165.087C141.385 165.087 141.74 165.179 142.042 165.361C142.345 165.544 142.58 165.796 142.747 166.119C142.915 166.439 142.999 166.807 142.999 167.225C142.999 167.645 142.914 168.016 142.744 168.339C142.576 168.659 142.341 168.91 142.039 169.092C141.736 169.272 141.382 169.363 140.977 169.363ZM140.977 168.515C141.337 168.515 141.605 168.395 141.78 168.155C141.955 167.915 142.042 167.605 142.042 167.225C142.042 166.832 141.954 166.52 141.776 166.287C141.599 166.052 141.332 165.935 140.977 165.935C140.735 165.935 140.535 165.99 140.377 166.1C140.222 166.207 140.107 166.359 140.032 166.554C139.957 166.746 139.92 166.97 139.92 167.225C139.92 167.617 140.009 167.931 140.186 168.166C140.366 168.399 140.63 168.515 140.977 168.515ZM144.76 169.25V166.002H143.407V165.2H147.018V166.002H145.664V169.25H144.76ZM149.57 169.363C149.16 169.363 148.8 169.274 148.49 169.096C148.18 168.919 147.937 168.672 147.762 168.357C147.59 168.042 147.504 167.68 147.504 167.27C147.504 166.827 147.589 166.444 147.759 166.119C147.929 165.791 148.165 165.537 148.467 165.357C148.77 165.177 149.12 165.087 149.517 165.087C149.937 165.087 150.294 165.186 150.586 165.384C150.881 165.579 151.1 165.855 151.242 166.212C151.385 166.57 151.439 166.991 151.404 167.476H150.507V167.146C150.505 166.706 150.427 166.385 150.275 166.182C150.122 165.98 149.882 165.879 149.555 165.879C149.185 165.879 148.91 165.994 148.73 166.224C148.55 166.451 148.46 166.785 148.46 167.225C148.46 167.635 148.55 167.952 148.73 168.177C148.91 168.402 149.172 168.515 149.517 168.515C149.74 168.515 149.931 168.466 150.091 168.369C150.254 168.269 150.379 168.125 150.466 167.937L151.359 168.207C151.204 168.572 150.964 168.856 150.639 169.059C150.316 169.261 149.96 169.363 149.57 169.363ZM148.175 167.476V166.794H150.961V167.476H148.175ZM151.865 169.25V168.492C152.013 168.52 152.127 168.517 152.207 168.485C152.287 168.45 152.347 168.385 152.387 168.29C152.427 168.195 152.462 168.069 152.492 167.911C152.532 167.689 152.567 167.432 152.597 167.142C152.629 166.852 152.657 166.542 152.679 166.212C152.704 165.882 152.727 165.545 152.747 165.2H155.728V169.25H154.828V166.047H153.542C153.529 166.21 153.514 166.392 153.497 166.595C153.479 166.795 153.46 166.997 153.44 167.202C153.42 167.407 153.398 167.602 153.373 167.787C153.35 167.97 153.327 168.126 153.302 168.256C153.244 168.549 153.162 168.78 153.054 168.95C152.949 169.12 152.802 169.229 152.612 169.276C152.422 169.326 152.173 169.318 151.865 169.25ZM156.778 169.25L156.774 165.2H157.678V166.55H158.405C158.518 166.55 158.644 166.552 158.784 166.557C158.926 166.562 159.045 166.574 159.14 166.591C159.368 166.641 159.561 166.721 159.721 166.831C159.884 166.941 160.008 167.085 160.093 167.262C160.178 167.44 160.22 167.654 160.22 167.904C160.22 168.261 160.128 168.547 159.943 168.762C159.76 168.975 159.503 169.12 159.17 169.197C159.07 169.22 158.948 169.235 158.803 169.242C158.66 169.247 158.531 169.25 158.416 169.25H156.778ZM157.678 168.541H158.495C158.55 168.541 158.611 168.539 158.679 168.534C158.746 168.529 158.811 168.517 158.874 168.5C158.986 168.47 159.085 168.402 159.17 168.297C159.258 168.19 159.301 168.059 159.301 167.904C159.301 167.741 159.258 167.607 159.17 167.502C159.083 167.397 158.975 167.329 158.848 167.296C158.79 167.281 158.73 167.271 158.668 167.266C158.605 167.261 158.548 167.259 158.495 167.259H157.678V168.541ZM164.334 169.363C163.929 169.363 163.576 169.271 163.273 169.089C162.971 168.906 162.736 168.655 162.568 168.335C162.403 168.012 162.321 167.642 162.321 167.225C162.321 166.8 162.406 166.427 162.576 166.107C162.746 165.787 162.982 165.537 163.284 165.357C163.587 165.177 163.937 165.087 164.334 165.087C164.742 165.087 165.097 165.179 165.399 165.361C165.702 165.544 165.937 165.796 166.104 166.119C166.272 166.439 166.356 166.807 166.356 167.225C166.356 167.645 166.271 168.016 166.101 168.339C165.933 168.659 165.698 168.91 165.396 169.092C165.093 169.272 164.739 169.363 164.334 169.363ZM164.334 168.515C164.694 168.515 164.962 168.395 165.137 168.155C165.312 167.915 165.399 167.605 165.399 167.225C165.399 166.832 165.311 166.52 165.133 166.287C164.956 166.052 164.689 165.935 164.334 165.935C164.092 165.935 163.892 165.99 163.734 166.1C163.579 166.207 163.464 166.359 163.389 166.554C163.314 166.746 163.277 166.97 163.277 167.225C163.277 167.617 163.366 167.931 163.543 168.166C163.723 168.399 163.987 168.515 164.334 168.515ZM168.117 169.25V166.002H166.764V165.2H170.375V166.002H169.021V169.25H168.117ZM170.637 169.25V168.492C170.785 168.52 170.899 168.517 170.979 168.485C171.059 168.45 171.119 168.385 171.159 168.29C171.199 168.195 171.234 168.069 171.264 167.911C171.304 167.689 171.339 167.432 171.369 167.142C171.401 166.852 171.429 166.542 171.451 166.212C171.476 165.882 171.499 165.545 171.519 165.2H174.5V169.25H173.6V166.047H172.314C172.301 166.21 172.286 166.392 172.269 166.595C172.251 166.795 172.232 166.997 172.212 167.202C172.192 167.407 172.17 167.602 172.145 167.787C172.122 167.97 172.099 168.126 172.074 168.256C172.016 168.549 171.934 168.78 171.826 168.95C171.721 169.12 171.574 169.229 171.384 169.276C171.194 169.326 170.945 169.318 170.637 169.25ZM179.063 165.2V169.25H178.197V166.606L176.27 169.25H175.546V165.2H176.412V167.776L178.347 165.2H179.063ZM182.475 169.25V167.889C182.335 167.959 182.175 168.014 181.995 168.054C181.818 168.094 181.631 168.114 181.436 168.114C181.019 168.114 180.685 168.02 180.435 167.832C180.188 167.645 180.028 167.372 179.955 167.015C179.933 166.912 179.916 166.806 179.906 166.696C179.899 166.584 179.894 166.482 179.891 166.392C179.891 166.3 179.891 166.23 179.891 166.182V165.2H180.806V166.182C180.806 166.237 180.809 166.319 180.814 166.426C180.819 166.531 180.833 166.636 180.855 166.741C180.903 166.941 180.989 167.087 181.114 167.18C181.239 167.272 181.418 167.319 181.65 167.319C181.83 167.319 181.989 167.295 182.126 167.247C182.264 167.2 182.38 167.14 182.475 167.067V165.2H183.383V169.25H182.475ZM185.563 169.363C185.27 169.363 185.023 169.308 184.82 169.197C184.618 169.085 184.464 168.936 184.359 168.751C184.257 168.566 184.205 168.362 184.205 168.14C184.205 167.945 184.238 167.77 184.303 167.615C184.368 167.457 184.468 167.322 184.603 167.21C184.738 167.095 184.913 167.001 185.128 166.929C185.29 166.876 185.48 166.829 185.698 166.786C185.918 166.744 186.155 166.705 186.41 166.67C186.668 166.632 186.937 166.592 187.217 166.55L186.894 166.734C186.897 166.454 186.834 166.247 186.707 166.115C186.579 165.982 186.364 165.916 186.062 165.916C185.879 165.916 185.703 165.959 185.533 166.044C185.363 166.129 185.244 166.275 185.177 166.482L184.352 166.224C184.452 165.881 184.642 165.606 184.922 165.399C185.204 165.191 185.584 165.087 186.062 165.087C186.422 165.087 186.738 165.146 187.01 165.264C187.285 165.381 187.489 165.574 187.622 165.841C187.694 165.984 187.738 166.13 187.753 166.28C187.768 166.427 187.775 166.589 187.775 166.764V169.25H186.984V168.372L187.115 168.515C186.933 168.807 186.719 169.022 186.474 169.16C186.232 169.295 185.928 169.363 185.563 169.363ZM185.743 168.642C185.948 168.642 186.123 168.606 186.268 168.534C186.413 168.461 186.528 168.372 186.613 168.267C186.7 168.162 186.759 168.064 186.789 167.971C186.837 167.856 186.863 167.725 186.868 167.577C186.875 167.427 186.879 167.306 186.879 167.214L187.157 167.296C186.884 167.339 186.65 167.376 186.455 167.409C186.26 167.441 186.093 167.472 185.953 167.502C185.813 167.53 185.689 167.561 185.582 167.596C185.477 167.634 185.388 167.677 185.315 167.727C185.243 167.777 185.187 167.835 185.147 167.9C185.109 167.965 185.09 168.041 185.09 168.129C185.09 168.229 185.115 168.317 185.165 168.395C185.215 168.47 185.288 168.53 185.383 168.575C185.48 168.62 185.6 168.642 185.743 168.642ZM190.593 169.363C190.183 169.363 189.823 169.274 189.513 169.096C189.203 168.919 188.96 168.672 188.785 168.357C188.613 168.042 188.527 167.68 188.527 167.27C188.527 166.827 188.612 166.444 188.782 166.119C188.952 165.791 189.188 165.537 189.49 165.357C189.793 165.177 190.143 165.087 190.54 165.087C190.96 165.087 191.317 165.186 191.609 165.384C191.904 165.579 192.123 165.855 192.265 166.212C192.408 166.57 192.462 166.991 192.427 167.476H191.53V167.146C191.528 166.706 191.45 166.385 191.298 166.182C191.145 165.98 190.905 165.879 190.578 165.879C190.208 165.879 189.933 165.994 189.753 166.224C189.573 166.451 189.483 166.785 189.483 167.225C189.483 167.635 189.573 167.952 189.753 168.177C189.933 168.402 190.195 168.515 190.54 168.515C190.763 168.515 190.954 168.466 191.114 168.369C191.277 168.269 191.402 168.125 191.489 167.937L192.382 168.207C192.227 168.572 191.987 168.856 191.662 169.059C191.339 169.261 190.983 169.363 190.593 169.363ZM189.198 167.476V166.794H191.984V167.476H189.198ZM194.155 169.25V166.002H192.801V165.2H196.413V166.002H195.059V169.25H194.155ZM198.809 169.363C198.391 169.363 198.035 169.27 197.74 169.085C197.445 168.897 197.219 168.642 197.061 168.32C196.906 167.997 196.827 167.632 196.825 167.225C196.827 166.81 196.909 166.442 197.069 166.122C197.231 165.8 197.461 165.547 197.759 165.365C198.056 165.18 198.41 165.087 198.82 165.087C199.28 165.087 199.669 165.204 199.986 165.436C200.306 165.666 200.515 165.981 200.612 166.381L199.712 166.625C199.642 166.407 199.526 166.239 199.364 166.119C199.201 165.996 199.016 165.935 198.809 165.935C198.574 165.935 198.38 165.991 198.227 166.104C198.075 166.214 197.962 166.366 197.89 166.561C197.817 166.756 197.781 166.977 197.781 167.225C197.781 167.61 197.867 167.921 198.04 168.159C198.212 168.396 198.469 168.515 198.809 168.515C199.049 168.515 199.237 168.46 199.375 168.35C199.515 168.24 199.62 168.081 199.69 167.874L200.612 168.08C200.487 168.492 200.269 168.81 199.956 169.032C199.644 169.253 199.261 169.363 198.809 169.363ZM203.72 169.25V167.9H202.997C202.904 167.9 202.788 167.897 202.648 167.892C202.51 167.887 202.382 167.875 202.262 167.855C201.949 167.797 201.69 167.661 201.485 167.446C201.28 167.229 201.178 166.934 201.178 166.561C201.178 166.196 201.275 165.902 201.47 165.68C201.665 165.457 201.919 165.315 202.232 165.252C202.362 165.225 202.495 165.21 202.633 165.207C202.773 165.202 202.889 165.2 202.982 165.2H204.624V169.25H203.72ZM201.073 169.25L202.04 167.701H202.982L202.022 169.25H201.073ZM202.903 167.191H203.72V165.909H202.903C202.855 165.909 202.798 165.911 202.73 165.916C202.663 165.921 202.595 165.932 202.528 165.95C202.455 165.972 202.387 166.011 202.322 166.066C202.257 166.121 202.203 166.19 202.16 166.272C202.118 166.355 202.097 166.449 202.097 166.554C202.097 166.711 202.142 166.842 202.232 166.947C202.324 167.05 202.432 167.119 202.554 167.154C202.614 167.169 202.675 167.179 202.738 167.184C202.803 167.189 202.858 167.191 202.903 167.191ZM122.475 180.15V178.541C122.695 178.541 122.851 178.466 122.944 178.316C123.036 178.166 123.11 177.906 123.165 177.536C123.2 177.316 123.229 177.084 123.251 176.839C123.274 176.594 123.293 176.335 123.308 176.062C123.325 175.79 123.34 175.502 123.352 175.2H126.368V178.541H126.776V180.15H125.921V179.25H123.326V180.15H122.475ZM123.686 178.541H125.468V175.909H124.144C124.136 176.059 124.128 176.212 124.118 176.37C124.108 176.525 124.096 176.68 124.084 176.835C124.071 176.99 124.058 177.139 124.043 177.281C124.03 177.421 124.015 177.551 123.998 177.671C123.97 177.881 123.936 178.054 123.896 178.189C123.856 178.324 123.786 178.441 123.686 178.541ZM129.475 179.363C129.08 179.363 128.748 179.269 128.481 179.081C128.213 178.894 128.012 178.639 127.877 178.316C127.742 177.991 127.675 177.627 127.675 177.225C127.675 176.817 127.742 176.452 127.877 176.13C128.012 175.807 128.21 175.554 128.47 175.369C128.732 175.181 129.056 175.087 129.441 175.087C129.823 175.087 130.155 175.181 130.435 175.369C130.717 175.554 130.936 175.807 131.091 176.13C131.246 176.45 131.323 176.815 131.323 177.225C131.323 177.63 131.247 177.994 131.095 178.316C130.942 178.639 130.727 178.894 130.45 179.081C130.172 179.269 129.847 179.363 129.475 179.363ZM127.521 181.05V175.2H128.32V178.042H128.432V181.05H127.521ZM129.336 178.552C129.571 178.552 129.765 178.494 129.917 178.376C130.07 178.259 130.182 178.1 130.255 177.9C130.33 177.697 130.367 177.472 130.367 177.225C130.367 176.98 130.33 176.757 130.255 176.557C130.18 176.355 130.063 176.195 129.906 176.077C129.748 175.957 129.548 175.897 129.306 175.897C129.076 175.897 128.888 175.954 128.743 176.066C128.598 176.176 128.491 176.331 128.421 176.531C128.353 176.729 128.32 176.96 128.32 177.225C128.32 177.487 128.353 177.719 128.421 177.919C128.491 178.119 128.6 178.275 128.747 178.387C128.897 178.497 129.093 178.552 129.336 178.552ZM132.536 181.05L133.316 178.909L133.331 179.539L131.565 175.2H132.506L133.759 178.41H133.519L134.737 175.2H135.641L133.384 181.05H132.536ZM135.75 179.25L137.235 177.225L135.84 175.2H136.83L138.147 177.161V175.2H138.949V177.161L140.265 175.2H141.252L139.857 177.225L141.342 179.25H140.299L138.949 177.289V179.25H138.147V177.289L136.793 179.25H135.75ZM143.637 179.363C143.227 179.363 142.867 179.274 142.557 179.096C142.247 178.919 142.005 178.672 141.83 178.357C141.657 178.042 141.571 177.68 141.571 177.27C141.571 176.827 141.656 176.444 141.826 176.119C141.996 175.791 142.232 175.537 142.535 175.357C142.837 175.177 143.187 175.087 143.585 175.087C144.005 175.087 144.361 175.186 144.653 175.384C144.948 175.579 145.167 175.855 145.31 176.212C145.452 176.57 145.506 176.991 145.471 177.476H144.575V177.146C144.572 176.706 144.495 176.385 144.342 176.182C144.19 175.98 143.95 175.879 143.622 175.879C143.252 175.879 142.977 175.994 142.797 176.224C142.617 176.451 142.527 176.785 142.527 177.225C142.527 177.635 142.617 177.952 142.797 178.177C142.977 178.402 143.24 178.515 143.585 178.515C143.807 178.515 143.998 178.466 144.158 178.369C144.321 178.269 144.446 178.125 144.533 177.937L145.426 178.207C145.271 178.572 145.031 178.856 144.706 179.059C144.383 179.261 144.027 179.363 143.637 179.363ZM142.242 177.476V176.794H145.028V177.476H142.242ZM145.933 179.25V178.492C146.08 178.52 146.194 178.517 146.274 178.485C146.354 178.45 146.414 178.385 146.454 178.29C146.494 178.195 146.529 178.069 146.559 177.911C146.599 177.689 146.634 177.432 146.664 177.142C146.696 176.852 146.724 176.542 146.746 176.212C146.771 175.882 146.794 175.545 146.814 175.2H149.795V179.25H148.895V176.047H147.609C147.596 176.21 147.581 176.392 147.564 176.595C147.546 176.795 147.528 176.997 147.508 177.202C147.488 177.407 147.465 177.602 147.44 177.787C147.418 177.97 147.394 178.126 147.369 178.256C147.311 178.549 147.229 178.78 147.121 178.95C147.016 179.12 146.869 179.229 146.679 179.276C146.489 179.326 146.24 179.318 145.933 179.25ZM154.385 179.363C154.062 179.363 153.771 179.296 153.511 179.164C153.254 179.029 153.039 178.836 152.866 178.586C152.696 178.334 152.585 178.03 152.532 177.675H151.745V179.25H150.841V175.2H151.745V176.775H152.532C152.585 176.415 152.697 176.11 152.87 175.86C153.042 175.607 153.26 175.416 153.522 175.286C153.785 175.154 154.079 175.087 154.404 175.087C154.804 175.087 155.154 175.18 155.454 175.365C155.754 175.547 155.987 175.799 156.155 176.119C156.322 176.439 156.406 176.805 156.406 177.217C156.406 177.64 156.321 178.012 156.151 178.335C155.981 178.657 155.745 178.91 155.442 179.092C155.14 179.272 154.787 179.363 154.385 179.363ZM154.377 178.515C154.737 178.515 155.006 178.395 155.184 178.155C155.361 177.915 155.45 177.605 155.45 177.225C155.45 176.827 155.36 176.514 155.18 176.284C155.002 176.051 154.735 175.935 154.377 175.935C154.022 175.935 153.759 176.052 153.586 176.287C153.414 176.52 153.327 176.83 153.327 177.217C153.327 177.615 153.416 177.931 153.594 178.166C153.771 178.399 154.032 178.515 154.377 178.515ZM158.912 179.37C158.527 179.365 158.199 179.279 157.929 179.111C157.659 178.944 157.448 178.707 157.296 178.402C157.143 178.097 157.051 177.737 157.018 177.323C157.003 177.11 157.002 176.872 157.014 176.61C157.027 176.347 157.054 176.091 157.097 175.841C157.139 175.591 157.198 175.379 157.273 175.204C157.351 175.029 157.452 174.867 157.577 174.72C157.702 174.57 157.837 174.445 157.982 174.345C158.147 174.23 158.326 174.141 158.518 174.079C158.713 174.016 158.917 173.969 159.129 173.936C159.342 173.901 159.561 173.87 159.786 173.842C160.011 173.815 160.233 173.78 160.453 173.737L160.536 174.536C160.396 174.571 160.233 174.599 160.048 174.619C159.866 174.636 159.676 174.656 159.478 174.679C159.283 174.701 159.097 174.734 158.919 174.776C158.742 174.819 158.588 174.881 158.458 174.964C158.278 175.074 158.141 175.231 158.046 175.436C157.951 175.641 157.894 175.857 157.877 176.085C158.032 175.855 158.224 175.694 158.454 175.601C158.687 175.506 158.922 175.459 159.159 175.459C159.519 175.459 159.828 175.544 160.086 175.714C160.346 175.884 160.544 176.115 160.682 176.407C160.822 176.697 160.892 177.021 160.892 177.379C160.892 177.779 160.808 178.129 160.641 178.429C160.473 178.729 160.241 178.961 159.943 179.126C159.646 179.291 159.302 179.373 158.912 179.37ZM158.957 178.522C159.282 178.522 159.527 178.422 159.692 178.222C159.859 178.02 159.943 177.751 159.943 177.416C159.943 177.074 159.857 176.804 159.684 176.606C159.514 176.409 159.272 176.31 158.957 176.31C158.637 176.31 158.393 176.409 158.226 176.606C158.058 176.804 157.974 177.074 157.974 177.416C157.974 177.766 158.059 178.039 158.229 178.234C158.399 178.426 158.642 178.522 158.957 178.522ZM161.71 179.25V175.2H162.614V176.797H164.433V175.2H165.337V179.25H164.433V177.645H162.614V179.25H161.71ZM168.172 179.363C167.767 179.363 167.413 179.271 167.111 179.089C166.808 178.906 166.573 178.655 166.406 178.335C166.241 178.012 166.158 177.642 166.158 177.225C166.158 176.8 166.243 176.427 166.413 176.107C166.583 175.787 166.82 175.537 167.122 175.357C167.425 175.177 167.775 175.087 168.172 175.087C168.58 175.087 168.935 175.179 169.237 175.361C169.54 175.544 169.775 175.796 169.942 176.119C170.11 176.439 170.193 176.807 170.193 177.225C170.193 177.645 170.108 178.016 169.938 178.339C169.771 178.659 169.536 178.91 169.233 179.092C168.931 179.272 168.577 179.363 168.172 179.363ZM168.172 178.515C168.532 178.515 168.8 178.395 168.975 178.155C169.15 177.915 169.237 177.605 169.237 177.225C169.237 176.832 169.148 176.52 168.971 176.287C168.793 176.052 168.527 175.935 168.172 175.935C167.93 175.935 167.73 175.99 167.572 176.1C167.417 176.207 167.302 176.359 167.227 176.554C167.152 176.746 167.115 176.97 167.115 177.225C167.115 177.617 167.203 177.931 167.381 178.166C167.561 178.399 167.825 178.515 168.172 178.515ZM172.891 174.742C172.683 174.742 172.493 174.691 172.321 174.589C172.148 174.486 172.011 174.35 171.908 174.18C171.806 174.007 171.755 173.816 171.755 173.606H172.46C172.46 173.726 172.501 173.829 172.583 173.914C172.668 173.996 172.771 174.037 172.891 174.037C173.011 174.037 173.112 173.996 173.195 173.914C173.28 173.829 173.322 173.726 173.322 173.606H174.027C174.027 173.816 173.976 174.007 173.873 174.18C173.771 174.35 173.633 174.486 173.461 174.589C173.288 174.691 173.098 174.742 172.891 174.742ZM174.53 175.2V179.25H173.663V176.606L171.736 179.25H171.012V175.2H171.878V177.776L173.813 175.2H174.53ZM123.908 189.363C123.615 189.363 123.368 189.308 123.165 189.197C122.963 189.085 122.809 188.936 122.704 188.751C122.601 188.566 122.55 188.362 122.55 188.14C122.55 187.945 122.583 187.77 122.648 187.615C122.713 187.457 122.813 187.322 122.948 187.21C123.083 187.095 123.258 187.001 123.473 186.929C123.635 186.876 123.825 186.829 124.043 186.786C124.263 186.744 124.5 186.705 124.755 186.67C125.013 186.632 125.281 186.592 125.561 186.55L125.239 186.734C125.241 186.454 125.179 186.247 125.051 186.115C124.924 185.982 124.709 185.916 124.406 185.916C124.224 185.916 124.048 185.959 123.878 186.044C123.708 186.129 123.589 186.275 123.521 186.482L122.696 186.224C122.796 185.881 122.986 185.606 123.266 185.399C123.549 185.191 123.929 185.087 124.406 185.087C124.766 185.087 125.083 185.146 125.355 185.264C125.63 185.381 125.834 185.574 125.966 185.841C126.039 185.984 126.083 186.13 126.098 186.28C126.113 186.427 126.12 186.589 126.12 186.764V189.25H125.329V188.372L125.46 188.515C125.278 188.807 125.064 189.022 124.819 189.16C124.576 189.295 124.273 189.363 123.908 189.363ZM124.088 188.642C124.293 188.642 124.468 188.606 124.613 188.534C124.758 188.461 124.873 188.372 124.958 188.267C125.045 188.162 125.104 188.064 125.134 187.971C125.181 187.856 125.208 187.725 125.213 187.577C125.22 187.427 125.224 187.306 125.224 187.214L125.501 187.296C125.229 187.339 124.995 187.376 124.8 187.409C124.605 187.441 124.438 187.472 124.298 187.502C124.158 187.53 124.034 187.561 123.926 187.596C123.821 187.634 123.733 187.677 123.66 187.727C123.588 187.777 123.531 187.835 123.491 187.9C123.454 187.965 123.435 188.041 123.435 188.129C123.435 188.229 123.46 188.317 123.51 188.395C123.56 188.47 123.633 188.53 123.728 188.575C123.825 188.62 123.945 188.642 124.088 188.642ZM128.113 189.25V186.002H126.759V185.2H130.37V186.002H129.016V189.25H128.113ZM131.073 189.25V185.2H131.816L133.267 187.997L134.722 185.2H135.461V189.25H134.598V187.019L133.447 189.25H133.091L131.939 187.019V189.25H131.073ZM138.297 189.363C137.892 189.363 137.538 189.271 137.235 189.089C136.933 188.906 136.698 188.655 136.53 188.335C136.365 188.012 136.283 187.642 136.283 187.225C136.283 186.8 136.368 186.427 136.538 186.107C136.708 185.787 136.944 185.537 137.247 185.357C137.549 185.177 137.899 185.087 138.297 185.087C138.704 185.087 139.059 185.179 139.362 185.361C139.664 185.544 139.899 185.796 140.067 186.119C140.234 186.439 140.318 186.807 140.318 187.225C140.318 187.645 140.233 188.016 140.063 188.339C139.895 188.659 139.66 188.91 139.358 189.092C139.055 189.272 138.702 189.363 138.297 189.363ZM138.297 188.515C138.657 188.515 138.924 188.395 139.099 188.155C139.274 187.915 139.362 187.605 139.362 187.225C139.362 186.832 139.273 186.52 139.095 186.287C138.918 186.052 138.652 185.935 138.297 185.935C138.054 185.935 137.854 185.99 137.697 186.1C137.542 186.207 137.427 186.359 137.352 186.554C137.277 186.746 137.239 186.97 137.239 187.225C137.239 187.617 137.328 187.931 137.505 188.166C137.685 188.399 137.949 188.515 138.297 188.515ZM142.903 189.363C142.485 189.363 142.129 189.27 141.834 189.085C141.539 188.897 141.313 188.642 141.155 188.32C141 187.997 140.922 187.632 140.919 187.225C140.922 186.81 141.003 186.442 141.163 186.122C141.325 185.8 141.555 185.547 141.853 185.365C142.15 185.18 142.504 185.087 142.914 185.087C143.374 185.087 143.763 185.204 144.08 185.436C144.4 185.666 144.609 185.981 144.707 186.381L143.807 186.625C143.737 186.407 143.62 186.239 143.458 186.119C143.295 185.996 143.11 185.935 142.903 185.935C142.668 185.935 142.474 185.991 142.322 186.104C142.169 186.214 142.057 186.366 141.984 186.561C141.912 186.756 141.875 186.977 141.875 187.225C141.875 187.61 141.962 187.921 142.134 188.159C142.307 188.396 142.563 188.515 142.903 188.515C143.143 188.515 143.332 188.46 143.469 188.35C143.609 188.24 143.714 188.081 143.784 187.874L144.707 188.08C144.582 188.492 144.363 188.81 144.05 189.032C143.738 189.253 143.355 189.363 142.903 189.363ZM147.246 190.938V189.321C146.851 189.384 146.492 189.341 146.169 189.194C145.849 189.046 145.594 188.806 145.404 188.474C145.217 188.141 145.123 187.725 145.123 187.225C145.123 186.727 145.217 186.311 145.404 185.976C145.594 185.641 145.849 185.401 146.169 185.256C146.492 185.109 146.851 185.066 147.246 185.129V183.914H148.048V185.129C148.443 185.066 148.801 185.109 149.121 185.256C149.443 185.401 149.698 185.641 149.886 185.976C150.076 186.311 150.171 186.727 150.171 187.225C150.171 187.725 150.076 188.141 149.886 188.474C149.698 188.806 149.443 189.046 149.121 189.194C148.801 189.341 148.443 189.384 148.048 189.321V190.938H147.246ZM147.246 188.511V185.946C147.043 185.911 146.866 185.917 146.713 185.965C146.563 186.01 146.438 186.09 146.338 186.205C146.241 186.317 146.167 186.461 146.117 186.636C146.067 186.809 146.042 187.005 146.042 187.225C146.042 187.447 146.067 187.645 146.117 187.817C146.169 187.99 146.247 188.134 146.349 188.249C146.452 188.364 146.578 188.445 146.728 188.492C146.878 188.537 147.051 188.544 147.246 188.511ZM148.048 188.511C148.243 188.544 148.416 188.537 148.566 188.492C148.716 188.447 148.841 188.369 148.941 188.256C149.043 188.144 149.121 188.001 149.173 187.829C149.226 187.654 149.252 187.452 149.252 187.225C149.252 186.997 149.227 186.797 149.177 186.625C149.127 186.452 149.052 186.31 148.952 186.197C148.854 186.082 148.729 186.004 148.577 185.961C148.427 185.916 148.251 185.911 148.048 185.946V188.511ZM152.836 189.363C152.426 189.363 152.066 189.274 151.756 189.096C151.446 188.919 151.204 188.672 151.029 188.357C150.856 188.042 150.77 187.68 150.77 187.27C150.77 186.827 150.855 186.444 151.025 186.119C151.195 185.791 151.431 185.537 151.734 185.357C152.036 185.177 152.386 185.087 152.784 185.087C153.204 185.087 153.56 185.186 153.853 185.384C154.148 185.579 154.366 185.855 154.509 186.212C154.651 186.57 154.705 186.991 154.67 187.476H153.774V187.146C153.771 186.706 153.694 186.385 153.541 186.182C153.389 185.98 153.149 185.879 152.821 185.879C152.451 185.879 152.176 185.994 151.996 186.224C151.816 186.451 151.726 186.785 151.726 187.225C151.726 187.635 151.816 187.952 151.996 188.177C152.176 188.402 152.439 188.515 152.784 188.515C153.006 188.515 153.198 188.466 153.358 188.369C153.52 188.269 153.645 188.125 153.733 187.937L154.625 188.207C154.47 188.572 154.23 188.856 153.905 189.059C153.583 189.261 153.226 189.363 152.836 189.363ZM151.441 187.476V186.794H154.228V187.476H151.441ZM157.453 189.363C157.058 189.363 156.727 189.269 156.459 189.081C156.192 188.894 155.991 188.639 155.856 188.316C155.721 187.991 155.653 187.627 155.653 187.225C155.653 186.817 155.721 186.452 155.856 186.13C155.991 185.807 156.188 185.554 156.448 185.369C156.711 185.181 157.034 185.087 157.419 185.087C157.802 185.087 158.133 185.181 158.413 185.369C158.696 185.554 158.914 185.807 159.069 186.13C159.224 186.45 159.302 186.815 159.302 187.225C159.302 187.63 159.226 187.994 159.073 188.316C158.921 188.639 158.706 188.894 158.428 189.081C158.151 189.269 157.826 189.363 157.453 189.363ZM155.499 191.05V185.2H156.298V188.042H156.411V191.05H155.499ZM157.314 188.552C157.549 188.552 157.743 188.494 157.896 188.376C158.048 188.259 158.161 188.1 158.233 187.9C158.308 187.697 158.346 187.472 158.346 187.225C158.346 186.98 158.308 186.757 158.233 186.557C158.158 186.355 158.042 186.195 157.884 186.077C157.727 185.957 157.527 185.897 157.284 185.897C157.054 185.897 156.867 185.954 156.722 186.066C156.577 186.176 156.469 186.331 156.399 186.531C156.332 186.729 156.298 186.96 156.298 187.225C156.298 187.487 156.332 187.719 156.399 187.919C156.469 188.119 156.578 188.275 156.726 188.387C156.876 188.497 157.072 188.552 157.314 188.552ZM161.917 189.363C161.512 189.363 161.159 189.271 160.856 189.089C160.554 188.906 160.319 188.655 160.151 188.335C159.986 188.012 159.904 187.642 159.904 187.225C159.904 186.8 159.989 186.427 160.159 186.107C160.329 185.787 160.565 185.537 160.867 185.357C161.17 185.177 161.52 185.087 161.917 185.087C162.325 185.087 162.68 185.179 162.982 185.361C163.285 185.544 163.52 185.796 163.687 186.119C163.855 186.439 163.939 186.807 163.939 187.225C163.939 187.645 163.854 188.016 163.684 188.339C163.516 188.659 163.281 188.91 162.979 189.092C162.676 189.272 162.322 189.363 161.917 189.363ZM161.917 188.515C162.277 188.515 162.545 188.395 162.72 188.155C162.895 187.915 162.982 187.605 162.982 187.225C162.982 186.832 162.894 186.52 162.716 186.287C162.539 186.052 162.272 185.935 161.917 185.935C161.675 185.935 161.475 185.99 161.317 186.1C161.162 186.207 161.047 186.359 160.972 186.554C160.897 186.746 160.86 186.97 160.86 187.225C160.86 187.617 160.949 187.931 161.126 188.166C161.306 188.399 161.57 188.515 161.917 188.515ZM166.636 184.742C166.428 184.742 166.238 184.691 166.066 184.589C165.893 184.486 165.756 184.35 165.653 184.18C165.551 184.007 165.5 183.816 165.5 183.606H166.205C166.205 183.726 166.246 183.829 166.328 183.914C166.413 183.996 166.516 184.037 166.636 184.037C166.756 184.037 166.857 183.996 166.94 183.914C167.025 183.829 167.067 183.726 167.067 183.606H167.772C167.772 183.816 167.721 184.007 167.618 184.18C167.516 184.35 167.378 184.486 167.206 184.589C167.033 184.691 166.843 184.742 166.636 184.742ZM168.275 185.2V189.25H167.408V186.606L165.481 189.25H164.757V185.2H165.623V187.776L167.558 185.2H168.275ZM174.339 185.2V189.25H173.473V186.606L171.545 189.25H170.822V185.2H171.688V187.776L173.623 185.2H174.339ZM177.91 189.25V186.002H176.556V185.2H180.167V186.002H178.814V189.25H177.91ZM182.719 189.363C182.309 189.363 181.949 189.274 181.639 189.096C181.329 188.919 181.087 188.672 180.912 188.357C180.739 188.042 180.653 187.68 180.653 187.27C180.653 186.827 180.738 186.444 180.908 186.119C181.078 185.791 181.314 185.537 181.617 185.357C181.919 185.177 182.269 185.087 182.667 185.087C183.087 185.087 183.443 185.186 183.736 185.384C184.031 185.579 184.249 185.855 184.392 186.212C184.534 186.57 184.588 186.991 184.553 187.476H183.657V187.146C183.654 186.706 183.577 186.385 183.424 186.182C183.272 185.98 183.032 185.879 182.704 185.879C182.334 185.879 182.059 185.994 181.879 186.224C181.699 186.451 181.609 186.785 181.609 187.225C181.609 187.635 181.699 187.952 181.879 188.177C182.059 188.402 182.322 188.515 182.667 188.515C182.889 188.515 183.081 188.466 183.241 188.369C183.403 188.269 183.528 188.125 183.616 187.937L184.508 188.207C184.353 188.572 184.113 188.856 183.788 189.059C183.466 189.261 183.109 189.363 182.719 189.363ZM181.324 187.476V186.794H184.111V187.476H181.324ZM187.148 189.363C186.731 189.363 186.375 189.27 186.08 189.085C185.785 188.897 185.558 188.642 185.401 188.32C185.246 187.997 185.167 187.632 185.165 187.225C185.167 186.81 185.248 186.442 185.408 186.122C185.571 185.8 185.801 185.547 186.098 185.365C186.396 185.18 186.75 185.087 187.16 185.087C187.62 185.087 188.008 185.204 188.326 185.436C188.646 185.666 188.855 185.981 188.952 186.381L188.052 186.625C187.982 186.407 187.866 186.239 187.703 186.119C187.541 185.996 187.356 185.935 187.148 185.935C186.913 185.935 186.72 185.991 186.567 186.104C186.415 186.214 186.302 186.366 186.23 186.561C186.157 186.756 186.121 186.977 186.121 187.225C186.121 187.61 186.207 187.921 186.38 188.159C186.552 188.396 186.808 188.515 187.148 188.515C187.388 188.515 187.577 188.46 187.715 188.35C187.855 188.24 187.96 188.081 188.03 187.874L188.952 188.08C188.827 188.492 188.608 188.81 188.296 189.032C187.983 189.253 187.601 189.363 187.148 189.363ZM189.696 189.25V185.2H190.6V186.797H192.419V185.2H193.322V189.25H192.419V187.645H190.6V189.25H189.696ZM194.365 189.25L194.362 185.2H195.265V186.55H195.719C195.832 186.55 195.958 186.552 196.098 186.557C196.24 186.562 196.359 186.574 196.454 186.591C196.682 186.641 196.875 186.721 197.035 186.831C197.198 186.941 197.322 187.085 197.407 187.262C197.492 187.44 197.534 187.654 197.534 187.904C197.534 188.261 197.442 188.547 197.257 188.762C197.072 188.975 196.813 189.12 196.48 189.197C196.383 189.22 196.262 189.235 196.117 189.242C195.972 189.247 195.843 189.25 195.73 189.25H194.365ZM195.265 188.541H195.809C195.864 188.541 195.925 188.539 195.993 188.534C196.06 188.529 196.124 188.517 196.184 188.5C196.297 188.47 196.397 188.402 196.484 188.297C196.572 188.19 196.615 188.059 196.615 187.904C196.615 187.741 196.572 187.607 196.484 187.502C196.397 187.397 196.289 187.329 196.162 187.296C196.102 187.281 196.04 187.271 195.978 187.266C195.918 187.261 195.862 187.259 195.809 187.259H195.265V188.541ZM197.958 189.25V185.2H198.862V189.25H197.958ZM199.906 189.25V185.2H200.649L202.1 187.997L203.555 185.2H204.294V189.25H203.431V187.019L202.28 189.25H201.924L200.772 187.019V189.25H199.906ZM208.851 185.2V189.25H207.985V186.606L206.057 189.25H205.333V185.2H206.2V187.776L208.135 185.2H208.851ZM122.768 199.25V195.2H124.609C124.741 195.2 124.865 195.207 124.98 195.222C125.095 195.237 125.194 195.256 125.276 195.279C125.471 195.336 125.644 195.449 125.794 195.616C125.944 195.781 126.019 196.01 126.019 196.302C126.019 196.475 125.991 196.617 125.936 196.73C125.881 196.84 125.809 196.932 125.719 197.007C125.676 197.042 125.633 197.072 125.588 197.097C125.543 197.122 125.498 197.142 125.453 197.157C125.55 197.172 125.643 197.201 125.73 197.244C125.868 197.311 125.983 197.411 126.075 197.544C126.17 197.676 126.218 197.862 126.218 198.102C126.218 198.375 126.151 198.605 126.019 198.792C125.889 198.977 125.698 199.106 125.445 199.179C125.353 199.204 125.246 199.222 125.126 199.235C125.006 199.245 124.884 199.25 124.759 199.25H122.768ZM123.683 198.552H124.695C124.748 198.552 124.805 198.547 124.868 198.537C124.93 198.527 124.986 198.514 125.036 198.496C125.126 198.464 125.191 198.406 125.231 198.324C125.274 198.241 125.295 198.155 125.295 198.065C125.295 197.942 125.264 197.845 125.201 197.772C125.141 197.697 125.069 197.647 124.984 197.622C124.934 197.602 124.879 197.591 124.819 197.589C124.761 197.584 124.714 197.581 124.676 197.581H123.683V198.552ZM123.683 196.872H124.433C124.51 196.872 124.585 196.869 124.658 196.861C124.733 196.851 124.795 196.835 124.845 196.812C124.928 196.78 124.988 196.725 125.025 196.647C125.065 196.57 125.085 196.484 125.085 196.389C125.085 196.289 125.063 196.199 125.018 196.119C124.975 196.036 124.906 195.981 124.811 195.954C124.749 195.929 124.673 195.915 124.583 195.912C124.495 195.91 124.439 195.909 124.414 195.909H123.683V196.872ZM128.404 199.363C128.019 199.363 127.668 199.281 127.351 199.119C127.033 198.956 126.783 198.734 126.601 198.451L127.313 197.975C127.458 198.147 127.619 198.281 127.797 198.376C127.974 198.469 128.172 198.515 128.389 198.515C128.617 198.515 128.796 198.465 128.926 198.365C129.056 198.265 129.121 198.131 129.121 197.964C129.121 197.816 129.077 197.712 128.989 197.652C128.902 197.59 128.787 197.552 128.644 197.54C128.502 197.527 128.349 197.521 128.187 197.521H127.887V196.805H128.183C128.411 196.805 128.601 196.779 128.753 196.726C128.908 196.674 128.986 196.557 128.986 196.377C128.986 196.215 128.926 196.1 128.806 196.032C128.686 195.962 128.546 195.927 128.386 195.927C128.191 195.927 127.998 195.969 127.808 196.051C127.618 196.134 127.448 196.234 127.298 196.351L126.788 195.736C127.013 195.536 127.264 195.379 127.542 195.264C127.819 195.146 128.116 195.087 128.431 195.087C128.691 195.087 128.933 195.132 129.158 195.222C129.386 195.312 129.568 195.447 129.706 195.627C129.846 195.807 129.916 196.03 129.916 196.295C129.916 196.485 129.874 196.664 129.792 196.831C129.712 196.999 129.583 197.157 129.406 197.307L129.394 197.015C129.532 197.072 129.648 197.152 129.743 197.255C129.841 197.357 129.914 197.477 129.964 197.615C130.017 197.752 130.043 197.899 130.043 198.054C130.043 198.336 129.968 198.575 129.818 198.77C129.668 198.965 129.468 199.112 129.218 199.212C128.971 199.313 128.699 199.363 128.404 199.363ZM132.001 199.363C131.708 199.363 131.461 199.308 131.258 199.197C131.056 199.085 130.902 198.936 130.797 198.751C130.695 198.566 130.643 198.362 130.643 198.14C130.643 197.945 130.676 197.77 130.741 197.615C130.806 197.457 130.906 197.322 131.041 197.21C131.176 197.095 131.351 197.001 131.566 196.929C131.728 196.876 131.918 196.829 132.136 196.786C132.356 196.744 132.593 196.705 132.848 196.67C133.106 196.632 133.375 196.592 133.655 196.55L133.332 196.734C133.335 196.454 133.272 196.247 133.145 196.115C133.017 195.982 132.802 195.916 132.5 195.916C132.317 195.916 132.141 195.959 131.971 196.044C131.801 196.129 131.682 196.275 131.615 196.482L130.79 196.224C130.89 195.881 131.08 195.606 131.36 195.399C131.642 195.191 132.022 195.087 132.5 195.087C132.86 195.087 133.176 195.146 133.448 195.264C133.723 195.381 133.927 195.574 134.06 195.841C134.132 195.984 134.176 196.13 134.191 196.28C134.206 196.427 134.213 196.589 134.213 196.764V199.25H133.422V198.372L133.553 198.515C133.371 198.807 133.157 199.022 132.912 199.16C132.67 199.295 132.366 199.363 132.001 199.363ZM132.181 198.642C132.386 198.642 132.561 198.606 132.706 198.534C132.851 198.461 132.966 198.372 133.051 198.267C133.138 198.162 133.197 198.064 133.227 197.971C133.275 197.856 133.301 197.725 133.306 197.577C133.313 197.427 133.317 197.306 133.317 197.214L133.595 197.296C133.322 197.339 133.088 197.376 132.893 197.409C132.698 197.441 132.531 197.472 132.391 197.502C132.251 197.53 132.127 197.561 132.02 197.596C131.915 197.634 131.826 197.677 131.753 197.727C131.681 197.777 131.625 197.835 131.585 197.9C131.547 197.965 131.528 198.041 131.528 198.129C131.528 198.229 131.553 198.317 131.603 198.395C131.653 198.47 131.726 198.53 131.821 198.575C131.918 198.62 132.038 198.642 132.181 198.642ZM138.7 195.2V199.25H137.833V196.606L135.906 199.25H135.182V195.2H136.048V197.776L137.983 195.2H138.7ZM139.745 199.25V195.2H140.488L141.939 197.997L143.394 195.2H144.133V199.25H143.27V197.019L142.119 199.25H141.763L140.611 197.019V199.25H139.745ZM146.969 199.363C146.564 199.363 146.21 199.271 145.907 199.089C145.605 198.906 145.37 198.655 145.202 198.335C145.037 198.012 144.955 197.642 144.955 197.225C144.955 196.8 145.04 196.427 145.21 196.107C145.38 195.787 145.616 195.537 145.919 195.357C146.221 195.177 146.571 195.087 146.969 195.087C147.376 195.087 147.731 195.179 148.034 195.361C148.336 195.544 148.571 195.796 148.739 196.119C148.906 196.439 148.99 196.807 148.99 197.225C148.99 197.645 148.905 198.016 148.735 198.339C148.567 198.659 148.332 198.91 148.03 199.092C147.727 199.272 147.374 199.363 146.969 199.363ZM146.969 198.515C147.329 198.515 147.596 198.395 147.771 198.155C147.946 197.915 148.034 197.605 148.034 197.225C148.034 196.832 147.945 196.52 147.767 196.287C147.59 196.052 147.324 195.935 146.969 195.935C146.726 195.935 146.526 195.99 146.369 196.1C146.214 196.207 146.099 196.359 146.024 196.554C145.949 196.746 145.911 196.97 145.911 197.225C145.911 197.617 146 197.931 146.177 198.166C146.357 198.399 146.621 198.515 146.969 198.515ZM151.605 199.363C151.2 199.363 150.846 199.271 150.544 199.089C150.241 198.906 150.006 198.655 149.839 198.335C149.674 198.012 149.591 197.642 149.591 197.225C149.591 196.8 149.676 196.427 149.846 196.107C150.016 195.787 150.252 195.537 150.555 195.357C150.857 195.177 151.207 195.087 151.605 195.087C152.012 195.087 152.367 195.179 152.67 195.361C152.972 195.544 153.207 195.796 153.375 196.119C153.542 196.439 153.626 196.807 153.626 197.225C153.626 197.645 153.541 198.016 153.371 198.339C153.204 198.659 152.969 198.91 152.666 199.092C152.364 199.272 152.01 199.363 151.605 199.363ZM151.605 198.515C151.965 198.515 152.232 198.395 152.407 198.155C152.582 197.915 152.67 197.605 152.67 197.225C152.67 196.832 152.581 196.52 152.404 196.287C152.226 196.052 151.96 195.935 151.605 195.935C151.362 195.935 151.162 195.99 151.005 196.1C150.85 196.207 150.735 196.359 150.66 196.554C150.585 196.746 150.547 196.97 150.547 197.225C150.547 197.617 150.636 197.931 150.814 198.166C150.994 198.399 151.257 198.515 151.605 198.515ZM155.388 199.25V196.002H154.034V195.2H157.645V196.002H156.292V199.25H155.388ZM158.349 199.25V195.2H159.252V196.797H161.071V195.2H161.975V199.25H161.071V197.645H159.252V199.25H158.349ZM164.81 199.363C164.405 199.363 164.052 199.271 163.749 199.089C163.447 198.906 163.212 198.655 163.044 198.335C162.879 198.012 162.797 197.642 162.797 197.225C162.797 196.8 162.882 196.427 163.052 196.107C163.222 195.787 163.458 195.537 163.76 195.357C164.063 195.177 164.413 195.087 164.81 195.087C165.218 195.087 165.573 195.179 165.875 195.361C166.178 195.544 166.413 195.796 166.58 196.119C166.748 196.439 166.832 196.807 166.832 197.225C166.832 197.645 166.747 198.016 166.577 198.339C166.409 198.659 166.174 198.91 165.872 199.092C165.569 199.272 165.215 199.363 164.81 199.363ZM164.81 198.515C165.17 198.515 165.438 198.395 165.613 198.155C165.788 197.915 165.875 197.605 165.875 197.225C165.875 196.832 165.787 196.52 165.609 196.287C165.432 196.052 165.165 195.935 164.81 195.935C164.568 195.935 164.368 195.99 164.21 196.1C164.055 196.207 163.94 196.359 163.865 196.554C163.79 196.746 163.753 196.97 163.753 197.225C163.753 197.617 163.842 197.931 164.019 198.166C164.199 198.399 164.463 198.515 164.81 198.515ZM167.65 199.25V195.2H168.517V198.447H169.66V195.2H170.527V198.447H171.67V195.2H172.537V199.25H167.65ZM175.424 199.363C175.014 199.363 174.654 199.274 174.344 199.096C174.034 198.919 173.792 198.672 173.617 198.357C173.444 198.042 173.358 197.68 173.358 197.27C173.358 196.827 173.443 196.444 173.613 196.119C173.783 195.791 174.019 195.537 174.322 195.357C174.624 195.177 174.974 195.087 175.372 195.087C175.792 195.087 176.148 195.186 176.441 195.384C176.736 195.579 176.954 195.855 177.097 196.212C177.239 196.57 177.293 196.991 177.258 197.476H176.362V197.146C176.359 196.706 176.282 196.385 176.129 196.182C175.977 195.98 175.737 195.879 175.409 195.879C175.039 195.879 174.764 195.994 174.584 196.224C174.404 196.451 174.314 196.785 174.314 197.225C174.314 197.635 174.404 197.952 174.584 198.177C174.764 198.402 175.027 198.515 175.372 198.515C175.594 198.515 175.786 198.466 175.946 198.369C176.108 198.269 176.233 198.125 176.321 197.937L177.213 198.207C177.058 198.572 176.818 198.856 176.493 199.059C176.171 199.261 175.814 199.363 175.424 199.363ZM174.029 197.476V196.794H176.816V197.476H174.029ZM178.087 199.25V195.2H178.991V196.797H180.81V195.2H181.714V199.25H180.81V197.645H178.991V199.25H178.087ZM186.27 195.2V199.25H185.404V196.606L183.477 199.25H182.753V195.2H183.619V197.776L185.554 195.2H186.27ZM189.746 199.25V197.9H189.022C188.93 197.9 188.813 197.897 188.673 197.892C188.536 197.887 188.407 197.875 188.287 197.855C187.975 197.797 187.716 197.661 187.511 197.446C187.306 197.229 187.203 196.934 187.203 196.561C187.203 196.196 187.301 195.902 187.496 195.68C187.691 195.457 187.945 195.315 188.257 195.252C188.387 195.225 188.521 195.21 188.658 195.207C188.798 195.202 188.915 195.2 189.007 195.2H190.65V199.25H189.746ZM187.098 199.25L188.066 197.701H189.007L188.047 199.25H187.098ZM188.928 197.191H189.746V195.909H188.928C188.881 195.909 188.823 195.911 188.756 195.916C188.688 195.921 188.621 195.932 188.553 195.95C188.481 195.972 188.412 196.011 188.347 196.066C188.282 196.121 188.228 196.19 188.186 196.272C188.143 196.355 188.122 196.449 188.122 196.554C188.122 196.711 188.167 196.842 188.257 196.947C188.35 197.05 188.457 197.119 188.58 197.154C188.64 197.169 188.701 197.179 188.763 197.184C188.828 197.189 188.883 197.191 188.928 197.191ZM191.688 199.25V195.2H192.431L193.882 197.997L195.337 195.2H196.076V199.25H195.213V197.019L194.062 199.25H193.706L192.555 197.019V199.25H191.688ZM200.633 195.2V199.25H199.767V196.606L197.839 199.25H197.116V195.2H197.982V197.776L199.917 195.2H200.633ZM122.768 209.25V205.2H123.51L124.961 207.997L126.416 205.2H127.155V209.25H126.293V207.019L125.141 209.25H124.785L123.634 207.019V209.25H122.768ZM130.043 209.363C129.633 209.363 129.273 209.274 128.963 209.096C128.653 208.919 128.411 208.672 128.236 208.357C128.063 208.042 127.977 207.68 127.977 207.27C127.977 206.827 128.062 206.444 128.232 206.119C128.402 205.791 128.638 205.537 128.941 205.357C129.243 205.177 129.593 205.087 129.991 205.087C130.411 205.087 130.767 205.186 131.06 205.384C131.355 205.579 131.573 205.855 131.716 206.212C131.858 206.57 131.912 206.991 131.877 207.476H130.981V207.146C130.978 206.706 130.901 206.385 130.748 206.182C130.596 205.98 130.356 205.879 130.028 205.879C129.658 205.879 129.383 205.994 129.203 206.224C129.023 206.451 128.933 206.785 128.933 207.225C128.933 207.635 129.023 207.952 129.203 208.177C129.383 208.402 129.646 208.515 129.991 208.515C130.213 208.515 130.405 208.466 130.565 208.369C130.727 208.269 130.852 208.125 130.94 207.937L131.832 208.207C131.677 208.572 131.437 208.856 131.112 209.059C130.79 209.261 130.433 209.363 130.043 209.363ZM128.648 207.476V206.794H131.435V207.476H128.648ZM132.117 209.25L133.602 207.225L132.207 205.2H133.197L134.514 207.161V205.2H135.316V207.161L136.632 205.2H137.619L136.224 207.225L137.709 209.25H136.666L135.316 207.289V209.25H134.514V207.289L133.16 209.25H132.117ZM137.863 210.15V208.541C138.083 208.541 138.239 208.466 138.332 208.316C138.424 208.166 138.498 207.906 138.553 207.536C138.588 207.316 138.617 207.084 138.639 206.839C138.662 206.594 138.681 206.335 138.696 206.062C138.713 205.79 138.728 205.502 138.741 205.2H141.756V208.541H142.164V210.15H141.309V209.25H138.714V210.15H137.863ZM139.074 208.541H140.856V205.909H139.532C139.524 206.059 139.516 206.212 139.506 206.37C139.496 206.525 139.484 206.68 139.472 206.835C139.459 206.99 139.446 207.139 139.431 207.281C139.418 207.421 139.403 207.551 139.386 207.671C139.358 207.881 139.324 208.054 139.284 208.189C139.244 208.324 139.174 208.441 139.074 208.541ZM143.449 211.05L144.229 208.909L144.244 209.539L142.478 205.2H143.419L144.672 208.41H144.432L145.65 205.2H146.554L144.297 211.05H143.449ZM150.374 209.363C149.956 209.363 149.6 209.27 149.305 209.085C149.01 208.897 148.784 208.642 148.626 208.32C148.471 207.997 148.392 207.632 148.39 207.225C148.392 206.81 148.474 206.442 148.634 206.122C148.796 205.8 149.026 205.547 149.324 205.365C149.621 205.18 149.975 205.087 150.385 205.087C150.845 205.087 151.234 205.204 151.551 205.436C151.871 205.666 152.08 205.981 152.177 206.381L151.277 206.625C151.207 206.407 151.091 206.239 150.929 206.119C150.766 205.996 150.581 205.935 150.374 205.935C150.139 205.935 149.945 205.991 149.792 206.104C149.64 206.214 149.527 206.366 149.455 206.561C149.382 206.756 149.346 206.977 149.346 207.225C149.346 207.61 149.432 207.921 149.605 208.159C149.777 208.396 150.034 208.515 150.374 208.515C150.614 208.515 150.802 208.46 150.94 208.35C151.08 208.24 151.185 208.081 151.255 207.874L152.177 208.08C152.052 208.492 151.834 208.81 151.521 209.032C151.209 209.253 150.826 209.363 150.374 209.363ZM154.608 209.363C154.203 209.363 153.849 209.271 153.546 209.089C153.244 208.906 153.009 208.655 152.841 208.335C152.676 208.012 152.594 207.642 152.594 207.225C152.594 206.8 152.679 206.427 152.849 206.107C153.019 205.787 153.255 205.537 153.558 205.357C153.86 205.177 154.21 205.087 154.608 205.087C155.015 205.087 155.37 205.179 155.673 205.361C155.975 205.544 156.21 205.796 156.378 206.119C156.545 206.439 156.629 206.807 156.629 207.225C156.629 207.645 156.544 208.016 156.374 208.339C156.206 208.659 155.971 208.91 155.669 209.092C155.366 209.272 155.013 209.363 154.608 209.363ZM154.608 208.515C154.968 208.515 155.235 208.395 155.41 208.155C155.585 207.915 155.673 207.605 155.673 207.225C155.673 206.832 155.584 206.52 155.406 206.287C155.229 206.052 154.963 205.935 154.608 205.935C154.365 205.935 154.165 205.99 154.008 206.1C153.853 206.207 153.738 206.359 153.663 206.554C153.588 206.746 153.55 206.97 153.55 207.225C153.55 207.617 153.639 207.931 153.816 208.166C153.996 208.399 154.26 208.515 154.608 208.515ZM158.391 209.25V206.002H157.037V205.2H160.648V206.002H159.295V209.25H158.391ZM163.305 209.363C162.91 209.363 162.579 209.269 162.311 209.081C162.044 208.894 161.843 208.639 161.708 208.316C161.573 207.991 161.505 207.627 161.505 207.225C161.505 206.817 161.573 206.452 161.708 206.13C161.843 205.807 162.04 205.554 162.3 205.369C162.563 205.181 162.886 205.087 163.271 205.087C163.654 205.087 163.985 205.181 164.265 205.369C164.548 205.554 164.766 205.807 164.921 206.13C165.076 206.45 165.154 206.815 165.154 207.225C165.154 207.63 165.078 207.994 164.925 208.316C164.773 208.639 164.558 208.894 164.28 209.081C164.003 209.269 163.678 209.363 163.305 209.363ZM161.351 211.05V205.2H162.15V208.042H162.263V211.05H161.351ZM163.166 208.552C163.401 208.552 163.595 208.494 163.748 208.376C163.9 208.259 164.013 208.1 164.085 207.9C164.16 207.697 164.198 207.472 164.198 207.225C164.198 206.98 164.16 206.757 164.085 206.557C164.01 206.355 163.894 206.195 163.736 206.077C163.579 205.957 163.379 205.897 163.136 205.897C162.906 205.897 162.719 205.954 162.574 206.066C162.429 206.176 162.321 206.331 162.251 206.531C162.184 206.729 162.15 206.96 162.15 207.225C162.15 207.487 162.184 207.719 162.251 207.919C162.321 208.119 162.43 208.275 162.578 208.387C162.728 208.497 162.924 208.552 163.166 208.552ZM166.367 211.05L167.147 208.909L167.162 209.539L165.395 205.2H166.337L167.589 208.41H167.349L168.568 205.2H169.472L167.214 211.05H166.367ZM169.584 210.15V208.541C169.804 208.541 169.961 208.466 170.053 208.316C170.146 208.166 170.219 207.906 170.274 207.536C170.309 207.316 170.338 207.084 170.361 206.839C170.383 206.594 170.402 206.335 170.417 206.062C170.434 205.79 170.449 205.502 170.462 205.2H173.477V208.541H173.886V210.15H173.031V209.25H170.436V210.15H169.584ZM170.796 208.541H172.577V205.909H171.253C171.246 206.059 171.237 206.212 171.227 206.37C171.217 206.525 171.206 206.68 171.193 206.835C171.181 206.99 171.167 207.139 171.152 207.281C171.139 207.421 171.124 207.551 171.107 207.671C171.079 207.881 171.046 208.054 171.006 208.189C170.966 208.324 170.896 208.441 170.796 208.541ZM174.63 209.25V205.2H175.534V206.797H177.353V205.2H178.257V209.25H177.353V207.645H175.534V209.25H174.63ZM182.813 205.2V209.25H181.947V206.606L180.02 209.25H179.296V205.2H180.162V207.776L182.097 205.2H182.813ZM183.859 209.25L183.866 205.2H184.781V207.15L186.263 205.2H187.391L185.82 207.225L187.526 209.25H186.33L184.781 207.3V209.25H183.859ZM189.034 209.363C188.742 209.363 188.494 209.308 188.292 209.197C188.089 209.085 187.936 208.936 187.831 208.751C187.728 208.566 187.677 208.362 187.677 208.14C187.677 207.945 187.709 207.77 187.774 207.615C187.839 207.457 187.939 207.322 188.074 207.21C188.209 207.095 188.384 207.001 188.599 206.929C188.762 206.876 188.952 206.829 189.169 206.786C189.389 206.744 189.627 206.705 189.882 206.67C190.139 206.632 190.408 206.592 190.688 206.55L190.366 206.734C190.368 206.454 190.306 206.247 190.178 206.115C190.051 205.982 189.836 205.916 189.533 205.916C189.351 205.916 189.174 205.959 189.004 206.044C188.834 206.129 188.716 206.275 188.648 206.482L187.823 206.224C187.923 205.881 188.113 205.606 188.393 205.399C188.676 205.191 189.056 205.087 189.533 205.087C189.893 205.087 190.209 205.146 190.482 205.264C190.757 205.381 190.961 205.574 191.093 205.841C191.166 205.984 191.209 206.13 191.224 206.28C191.239 206.427 191.247 206.589 191.247 206.764V209.25H190.456V208.372L190.587 208.515C190.404 208.807 190.191 209.022 189.946 209.16C189.703 209.295 189.399 209.363 189.034 209.363ZM189.214 208.642C189.419 208.642 189.594 208.606 189.739 208.534C189.884 208.461 189.999 208.372 190.084 208.267C190.172 208.162 190.231 208.064 190.261 207.971C190.308 207.856 190.334 207.725 190.339 207.577C190.347 207.427 190.351 207.306 190.351 207.214L190.628 207.296C190.356 207.339 190.122 207.376 189.927 207.409C189.732 207.441 189.564 207.472 189.424 207.502C189.284 207.53 189.161 207.561 189.053 207.596C188.948 207.634 188.859 207.677 188.787 207.727C188.714 207.777 188.658 207.835 188.618 207.9C188.581 207.965 188.562 208.041 188.562 208.129C188.562 208.229 188.587 208.317 188.637 208.395C188.687 208.47 188.759 208.53 188.854 208.575C188.952 208.62 189.072 208.642 189.214 208.642ZM192.216 209.25V205.2H192.958L194.409 207.997L195.864 205.2H196.603V209.25H195.741V207.019L194.589 209.25H194.233L193.082 207.019V209.25H192.216ZM201.16 205.2V209.25H200.294V206.606L198.367 209.25H197.643V205.2H198.509V207.776L200.444 205.2H201.16Z" fill="#73A9FF"/>
<path d="M144.99 639.25L147.714 630.61H149.832L152.556 639.25H151.068L148.596 631.498H148.92L146.478 639.25H144.99ZM146.508 637.378V636.028H151.044V637.378H146.508ZM153.641 639.25V630.61H155.105V636.7L159.113 630.61H160.577V639.25H159.113V633.16L155.105 639.25H153.641ZM157.103 629.878C156.767 629.878 156.461 629.796 156.185 629.632C155.913 629.468 155.695 629.25 155.531 628.978C155.367 628.702 155.285 628.396 155.285 628.06H156.413C156.413 628.252 156.479 628.416 156.611 628.552C156.747 628.684 156.911 628.75 157.103 628.75C157.295 628.75 157.457 628.684 157.589 628.552C157.725 628.416 157.793 628.252 157.793 628.06H158.921C158.921 628.396 158.839 628.702 158.675 628.978C158.511 629.25 158.291 629.468 158.015 629.632C157.739 629.796 157.435 629.878 157.103 629.878ZM165.908 639.43C165.044 639.43 164.304 639.242 163.688 638.866C163.072 638.486 162.598 637.958 162.266 637.282C161.938 636.606 161.774 635.822 161.774 634.93C161.774 634.038 161.938 633.254 162.266 632.578C162.598 631.902 163.072 631.376 163.688 631C164.304 630.62 165.044 630.43 165.908 630.43C166.904 630.43 167.734 630.68 168.398 631.18C169.062 631.676 169.528 632.346 169.796 633.19L168.338 633.592C168.17 633.028 167.884 632.588 167.48 632.272C167.076 631.952 166.552 631.792 165.908 631.792C165.328 631.792 164.844 631.922 164.456 632.182C164.072 632.442 163.782 632.808 163.586 633.28C163.394 633.748 163.296 634.298 163.292 634.93C163.292 635.562 163.388 636.114 163.58 636.586C163.776 637.054 164.068 637.418 164.456 637.678C164.844 637.938 165.328 638.068 165.908 638.068C166.552 638.068 167.076 637.908 167.48 637.588C167.884 637.268 168.17 636.828 168.338 636.268L169.796 636.67C169.528 637.514 169.062 638.186 168.398 638.686C167.734 639.182 166.904 639.43 165.908 639.43ZM171.113 639.25V630.61H176.891V631.966H172.559V633.826H174.683C174.763 633.826 174.869 633.83 175.001 633.838C175.137 633.842 175.261 633.85 175.373 633.862C175.857 633.918 176.261 634.072 176.585 634.324C176.913 634.576 177.159 634.894 177.323 635.278C177.491 635.662 177.575 636.082 177.575 636.538C177.575 636.994 177.493 637.416 177.329 637.804C177.165 638.188 176.919 638.506 176.591 638.758C176.267 639.006 175.861 639.158 175.373 639.214C175.261 639.226 175.139 639.236 175.007 639.244C174.875 639.248 174.767 639.25 174.683 639.25H171.113ZM172.559 637.894H174.623C174.703 637.894 174.793 637.89 174.893 637.882C174.993 637.874 175.085 637.862 175.169 637.846C175.529 637.77 175.777 637.602 175.913 637.342C176.049 637.082 176.117 636.814 176.117 636.538C176.117 636.258 176.049 635.99 175.913 635.734C175.777 635.474 175.529 635.306 175.169 635.23C175.085 635.21 174.993 635.198 174.893 635.194C174.793 635.186 174.703 635.182 174.623 635.182H172.559V637.894ZM178.778 639.25V630.61H184.358V631.966H180.224V634.096H183.638V635.452H180.224V637.894H184.358V639.25H178.778ZM185.797 639.25V630.61H189.367C189.451 630.61 189.559 630.614 189.691 630.622C189.823 630.626 189.945 630.638 190.057 630.658C190.557 630.734 190.969 630.9 191.293 631.156C191.621 631.412 191.863 631.736 192.019 632.128C192.179 632.516 192.259 632.948 192.259 633.424C192.259 633.896 192.179 634.328 192.019 634.72C191.859 635.108 191.615 635.43 191.287 635.686C190.963 635.942 190.553 636.108 190.057 636.184C189.945 636.2 189.821 636.212 189.685 636.22C189.553 636.228 189.447 636.232 189.367 636.232H187.243V639.25H185.797ZM187.243 634.882H189.307C189.387 634.882 189.477 634.878 189.577 634.87C189.677 634.862 189.769 634.846 189.853 634.822C190.093 634.762 190.281 634.656 190.417 634.504C190.557 634.352 190.655 634.18 190.711 633.988C190.771 633.796 190.801 633.608 190.801 633.424C190.801 633.24 190.771 633.052 190.711 632.86C190.655 632.664 190.557 632.49 190.417 632.338C190.281 632.186 190.093 632.08 189.853 632.02C189.769 631.996 189.677 631.982 189.577 631.978C189.477 631.97 189.387 631.966 189.307 631.966H187.243V634.882ZM193.461 639.25V630.61H199.041V631.966H194.907V639.25H193.461ZM201.319 639.25L204.247 634.882L201.403 630.61H203.173L205.141 633.652L207.091 630.61H208.873L206.029 634.882L208.945 639.25H207.175L205.141 636.112L203.101 639.25H201.319ZM213.193 639.43C212.329 639.43 211.589 639.242 210.973 638.866C210.357 638.486 209.883 637.958 209.551 637.282C209.223 636.606 209.059 635.822 209.059 634.93C209.059 634.038 209.223 633.254 209.551 632.578C209.883 631.902 210.357 631.376 210.973 631C211.589 630.62 212.329 630.43 213.193 630.43C214.057 630.43 214.797 630.62 215.413 631C216.033 631.376 216.507 631.902 216.835 632.578C217.167 633.254 217.333 634.038 217.333 634.93C217.333 635.822 217.167 636.606 216.835 637.282C216.507 637.958 216.033 638.486 215.413 638.866C214.797 639.242 214.057 639.43 213.193 639.43ZM213.193 638.068C213.773 638.072 214.255 637.944 214.639 637.684C215.027 637.424 215.317 637.058 215.509 636.586C215.705 636.114 215.803 635.562 215.803 634.93C215.803 634.298 215.705 633.75 215.509 633.286C215.317 632.818 215.027 632.454 214.639 632.194C214.255 631.934 213.773 631.8 213.193 631.792C212.613 631.788 212.131 631.916 211.747 632.176C211.363 632.436 211.073 632.802 210.877 633.274C210.685 633.746 210.589 634.298 210.589 634.93C210.589 635.562 210.685 636.112 210.877 636.58C211.069 637.044 211.357 637.406 211.741 637.666C212.129 637.926 212.613 638.06 213.193 638.068ZM217.693 639.25V638.038C217.885 638.05 218.047 638.036 218.179 637.996C218.311 637.952 218.421 637.87 218.509 637.75C218.601 637.626 218.681 637.452 218.749 637.228C218.817 637 218.883 636.714 218.947 636.37C219.039 635.878 219.115 635.366 219.175 634.834C219.239 634.298 219.293 633.772 219.337 633.256C219.381 632.736 219.415 632.248 219.439 631.792C219.463 631.336 219.483 630.942 219.499 630.61H225.283V639.25H223.837V631.966H220.837C220.817 632.234 220.793 632.558 220.765 632.938C220.741 633.314 220.707 633.722 220.663 634.162C220.623 634.602 220.571 635.058 220.507 635.53C220.447 636.002 220.373 636.466 220.285 636.922C220.205 637.338 220.109 637.712 219.997 638.044C219.885 638.372 219.735 638.644 219.547 638.86C219.363 639.072 219.121 639.214 218.821 639.286C218.525 639.358 218.149 639.346 217.693 639.25ZM230.619 639.43C229.755 639.43 229.015 639.242 228.399 638.866C227.783 638.486 227.309 637.958 226.977 637.282C226.649 636.606 226.485 635.822 226.485 634.93C226.485 634.038 226.649 633.254 226.977 632.578C227.309 631.902 227.783 631.376 228.399 631C229.015 630.62 229.755 630.43 230.619 630.43C231.483 630.43 232.223 630.62 232.839 631C233.459 631.376 233.933 631.902 234.261 632.578C234.593 633.254 234.759 634.038 234.759 634.93C234.759 635.822 234.593 636.606 234.261 637.282C233.933 637.958 233.459 638.486 232.839 638.866C232.223 639.242 231.483 639.43 230.619 639.43ZM230.619 638.068C231.199 638.072 231.681 637.944 232.065 637.684C232.453 637.424 232.743 637.058 232.935 636.586C233.131 636.114 233.229 635.562 233.229 634.93C233.229 634.298 233.131 633.75 232.935 633.286C232.743 632.818 232.453 632.454 232.065 632.194C231.681 631.934 231.199 631.8 230.619 631.792C230.039 631.788 229.557 631.916 229.173 632.176C228.789 632.436 228.499 632.802 228.303 633.274C228.111 633.746 228.015 634.298 228.015 634.93C228.015 635.562 228.111 636.112 228.303 636.58C228.495 637.044 228.783 637.406 229.167 637.666C229.555 637.926 230.039 638.06 230.619 638.068ZM235.257 640.69V637.894C235.537 637.894 235.771 637.824 235.959 637.684C236.147 637.544 236.297 637.35 236.409 637.102C236.525 636.854 236.615 636.566 236.679 636.238C236.743 635.906 236.793 635.554 236.829 635.182C236.873 634.69 236.911 634.208 236.943 633.736C236.975 633.26 237.005 632.768 237.033 632.26C237.065 631.748 237.101 631.194 237.141 630.598L242.775 630.61V637.894H243.423V640.69H241.983V639.25H236.703V640.69H235.257ZM237.507 637.894H241.329V631.966L238.461 631.954C238.433 632.374 238.409 632.766 238.389 633.13C238.373 633.49 238.351 633.856 238.323 634.228C238.299 634.6 238.265 635.006 238.221 635.446C238.181 635.878 238.137 636.238 238.089 636.526C238.045 636.814 237.979 637.064 237.891 637.276C237.803 637.484 237.675 637.69 237.507 637.894ZM244.742 639.25V630.61H246.188V634.246H250.28V630.61H251.72V639.25H250.28V635.602H246.188V639.25H244.742ZM252.803 639.25L255.527 630.61H257.645L260.369 639.25H258.881L256.409 631.498H256.733L254.291 639.25H252.803ZM254.321 637.378V636.028H258.857V637.378H254.321ZM267.693 639.25H266.253V636.232H264.021L263.403 636.178C262.667 636.058 262.121 635.746 261.765 635.242C261.409 634.734 261.231 634.128 261.231 633.424C261.231 632.948 261.311 632.516 261.471 632.128C261.631 631.736 261.873 631.412 262.197 631.156C262.521 630.9 262.933 630.734 263.433 630.658C263.549 630.638 263.671 630.626 263.799 630.622C263.931 630.614 264.039 630.61 264.123 630.61H267.693V639.25ZM262.731 639.25H261.093L262.965 635.41L264.435 635.734L262.731 639.25ZM266.253 634.882V631.966H264.183C264.103 631.966 264.013 631.97 263.913 631.978C263.813 631.982 263.721 631.996 263.637 632.02C263.397 632.08 263.207 632.186 263.067 632.338C262.931 632.49 262.835 632.664 262.779 632.86C262.723 633.052 262.695 633.24 262.695 633.424C262.695 633.608 262.723 633.796 262.779 633.988C262.835 634.18 262.931 634.352 263.067 634.504C263.207 634.656 263.397 634.762 263.637 634.822C263.721 634.846 263.813 634.862 263.913 634.87C264.013 634.878 264.103 634.882 264.183 634.882H266.253ZM275.432 639.43C274.568 639.43 273.828 639.242 273.212 638.866C272.596 638.486 272.122 637.958 271.79 637.282C271.462 636.606 271.298 635.822 271.298 634.93C271.298 634.038 271.462 633.254 271.79 632.578C272.122 631.902 272.596 631.376 273.212 631C273.828 630.62 274.568 630.43 275.432 630.43C276.428 630.43 277.258 630.68 277.922 631.18C278.586 631.676 279.052 632.346 279.32 633.19L277.862 633.592C277.694 633.028 277.408 632.588 277.004 632.272C276.6 631.952 276.076 631.792 275.432 631.792C274.852 631.792 274.368 631.922 273.98 632.182C273.596 632.442 273.306 632.808 273.11 633.28C272.918 633.748 272.82 634.298 272.816 634.93C272.816 635.562 272.912 636.114 273.104 636.586C273.3 637.054 273.592 637.418 273.98 637.678C274.368 637.938 274.852 638.068 275.432 638.068C276.076 638.068 276.6 637.908 277.004 637.588C277.408 637.268 277.694 636.828 277.862 636.268L279.32 636.67C279.052 637.514 278.586 638.186 277.922 638.686C277.258 639.182 276.428 639.43 275.432 639.43ZM287.573 639.25H286.109V633.16L282.101 639.25H280.637V630.61H282.101V636.7L286.109 630.61H287.573V639.25ZM289.25 639.25V630.61H290.696V634.246H294.788V630.61H296.228V639.25H294.788V635.602H290.696V639.25H289.25ZM297.898 639.25V630.61H299.344V633.628H301.468C301.548 633.628 301.656 633.632 301.792 633.64C301.928 633.644 302.052 633.656 302.164 633.676C302.66 633.752 303.07 633.918 303.394 634.174C303.722 634.43 303.964 634.754 304.12 635.146C304.28 635.534 304.36 635.964 304.36 636.436C304.36 636.912 304.28 637.346 304.12 637.738C303.964 638.126 303.722 638.448 303.394 638.704C303.07 638.96 302.66 639.126 302.164 639.202C302.052 639.218 301.928 639.23 301.792 639.238C301.66 639.246 301.552 639.25 301.468 639.25H297.898ZM299.344 637.894H301.408C301.492 637.894 301.582 637.89 301.678 637.882C301.778 637.874 301.872 637.86 301.96 637.84C302.196 637.78 302.382 637.674 302.518 637.522C302.658 637.37 302.756 637.198 302.812 637.006C302.872 636.81 302.902 636.62 302.902 636.436C302.902 636.252 302.872 636.064 302.812 635.872C302.756 635.68 302.658 635.508 302.518 635.356C302.382 635.204 302.196 635.098 301.96 635.038C301.872 635.014 301.778 634.998 301.678 634.99C301.582 634.982 301.492 634.978 301.408 634.978H299.344V637.894Z" fill="#73A9FF"/>
<path d="M347.058 368.36C345.722 368.36 344.582 368.064 343.638 367.472C342.694 366.872 341.97 366.056 341.466 365.024C340.97 363.992 340.718 362.824 340.71 361.52C340.718 360.192 340.978 359.016 341.49 357.992C342.01 356.96 342.746 356.152 343.698 355.568C344.65 354.976 345.782 354.68 347.094 354.68C348.566 354.68 349.81 355.052 350.826 355.796C351.85 356.532 352.518 357.54 352.83 358.82L349.95 359.6C349.726 358.904 349.354 358.364 348.834 357.98C348.314 357.588 347.722 357.392 347.058 357.392C346.306 357.392 345.686 357.572 345.198 357.932C344.71 358.284 344.35 358.772 344.118 359.396C343.886 360.02 343.77 360.728 343.77 361.52C343.77 362.752 344.046 363.748 344.598 364.508C345.15 365.268 345.97 365.648 347.058 365.648C347.826 365.648 348.43 365.472 348.87 365.12C349.318 364.768 349.654 364.26 349.878 363.596L352.83 364.256C352.43 365.576 351.73 366.592 350.73 367.304C349.73 368.008 348.506 368.36 347.058 368.36ZM361.127 368.36C359.815 368.36 358.663 368.076 357.671 367.508C356.679 366.94 355.903 366.152 355.343 365.144C354.791 364.136 354.515 362.976 354.515 361.664C354.515 360.248 354.787 359.02 355.331 357.98C355.875 356.932 356.631 356.12 357.599 355.544C358.567 354.968 359.687 354.68 360.959 354.68C362.303 354.68 363.443 354.996 364.379 355.628C365.323 356.252 366.023 357.136 366.479 358.28C366.935 359.424 367.107 360.772 366.995 362.324H364.127V361.268C364.119 359.86 363.871 358.832 363.383 358.184C362.895 357.536 362.127 357.212 361.079 357.212C359.895 357.212 359.015 357.58 358.439 358.316C357.863 359.044 357.575 360.112 357.575 361.52C357.575 362.832 357.863 363.848 358.439 364.568C359.015 365.288 359.855 365.648 360.959 365.648C361.671 365.648 362.283 365.492 362.795 365.18C363.315 364.86 363.715 364.4 363.995 363.8L366.851 364.664C366.355 365.832 365.587 366.74 364.547 367.388C363.515 368.036 362.375 368.36 361.127 368.36ZM356.663 362.324V360.14H365.579V362.324H356.663ZM369.648 368V355.04H375.54C375.964 355.04 376.36 355.064 376.728 355.112C377.096 355.16 377.412 355.22 377.676 355.292C378.3 355.476 378.852 355.836 379.332 356.372C379.812 356.9 380.052 357.632 380.052 358.568C380.052 359.12 379.964 359.576 379.788 359.936C379.612 360.288 379.38 360.584 379.092 360.824C378.956 360.936 378.816 361.032 378.672 361.112C378.528 361.192 378.384 361.256 378.24 361.304C378.552 361.352 378.848 361.444 379.128 361.58C379.568 361.796 379.936 362.116 380.232 362.54C380.536 362.964 380.688 363.56 380.688 364.328C380.688 365.2 380.476 365.936 380.052 366.536C379.636 367.128 379.024 367.54 378.216 367.772C377.92 367.852 377.58 367.912 377.196 367.952C376.812 367.984 376.42 368 376.02 368H369.648ZM372.576 365.768H375.816C375.984 365.768 376.168 365.752 376.368 365.72C376.568 365.688 376.748 365.644 376.908 365.588C377.196 365.484 377.404 365.3 377.532 365.036C377.668 364.772 377.736 364.496 377.736 364.208C377.736 363.816 377.636 363.504 377.436 363.272C377.244 363.032 377.012 362.872 376.74 362.792C376.58 362.728 376.404 362.692 376.212 362.684C376.028 362.668 375.876 362.66 375.756 362.66H372.576V365.768ZM372.576 360.392H374.976C375.224 360.392 375.464 360.38 375.696 360.356C375.936 360.324 376.136 360.272 376.296 360.2C376.56 360.096 376.752 359.92 376.872 359.672C377 359.424 377.064 359.148 377.064 358.844C377.064 358.524 376.992 358.236 376.848 357.98C376.712 357.716 376.492 357.54 376.188 357.452C375.988 357.372 375.744 357.328 375.456 357.32C375.176 357.312 374.996 357.308 374.916 357.308H372.576V360.392ZM388.97 368.36C387.658 368.36 386.506 368.076 385.514 367.508C384.522 366.94 383.746 366.152 383.186 365.144C382.634 364.136 382.358 362.976 382.358 361.664C382.358 360.248 382.63 359.02 383.174 357.98C383.718 356.932 384.474 356.12 385.442 355.544C386.41 354.968 387.53 354.68 388.802 354.68C390.146 354.68 391.286 354.996 392.222 355.628C393.166 356.252 393.866 357.136 394.322 358.28C394.778 359.424 394.95 360.772 394.838 362.324H391.97V361.268C391.962 359.86 391.714 358.832 391.226 358.184C390.738 357.536 389.97 357.212 388.922 357.212C387.738 357.212 386.858 357.58 386.282 358.316C385.706 359.044 385.418 360.112 385.418 361.52C385.418 362.832 385.706 363.848 386.282 364.568C386.858 365.288 387.698 365.648 388.802 365.648C389.514 365.648 390.126 365.492 390.638 365.18C391.158 364.86 391.558 364.4 391.838 363.8L394.694 364.664C394.198 365.832 393.43 366.74 392.39 367.388C391.358 368.036 390.218 368.36 388.97 368.36ZM384.506 362.324V360.14H393.422V362.324H384.506ZM403.744 368.36C402.48 368.36 401.42 368.06 400.564 367.46C399.708 366.86 399.064 366.044 398.632 365.012C398.2 363.972 397.984 362.808 397.984 361.52C397.984 360.216 398.2 359.048 398.632 358.016C399.064 356.984 399.696 356.172 400.528 355.58C401.368 354.98 402.404 354.68 403.636 354.68C404.86 354.68 405.92 354.98 406.816 355.58C407.72 356.172 408.42 356.984 408.916 358.016C409.412 359.04 409.66 360.208 409.66 361.52C409.66 362.816 409.416 363.98 408.928 365.012C408.44 366.044 407.752 366.86 406.864 367.46C405.976 368.06 404.936 368.36 403.744 368.36ZM397.492 373.76V355.04H400.048V364.136H400.408V373.76H397.492ZM403.3 365.768C404.052 365.768 404.672 365.58 405.16 365.204C405.648 364.828 406.008 364.32 406.24 363.68C406.48 363.032 406.6 362.312 406.6 361.52C406.6 360.736 406.48 360.024 406.24 359.384C406 358.736 405.628 358.224 405.124 357.848C404.62 357.464 403.98 357.272 403.204 357.272C402.468 357.272 401.868 357.452 401.404 357.812C400.94 358.164 400.596 358.66 400.372 359.3C400.156 359.932 400.048 360.672 400.048 361.52C400.048 362.36 400.156 363.1 400.372 363.74C400.596 364.38 400.944 364.88 401.416 365.24C401.896 365.592 402.524 365.768 403.3 365.768Z" fill="#73A9FF"/>
<path d="M287.412 187.04V200H284.64V191.54L278.472 200H276.156V187.04H278.928V195.284L285.12 187.04H287.412ZM290.782 200V187.04H300.022V189.752H293.674V200H290.782ZM300.878 200V197.576C301.35 197.664 301.714 197.656 301.97 197.552C302.226 197.44 302.418 197.232 302.546 196.928C302.674 196.624 302.786 196.22 302.882 195.716C303.01 195.004 303.122 194.184 303.218 193.256C303.322 192.328 303.41 191.336 303.482 190.28C303.562 189.224 303.634 188.144 303.698 187.04H313.238V200H310.358V189.752H306.242C306.202 190.272 306.154 190.856 306.098 191.504C306.042 192.144 305.982 192.792 305.918 193.448C305.854 194.104 305.782 194.728 305.702 195.32C305.63 195.904 305.554 196.404 305.474 196.82C305.29 197.756 305.026 198.496 304.682 199.04C304.346 199.584 303.874 199.932 303.266 200.084C302.658 200.244 301.862 200.216 300.878 200ZM318.314 205.76L320.81 198.908L320.858 200.924L315.206 187.04H318.218L322.226 197.312H321.458L325.358 187.04H328.25L321.026 205.76H318.314Z" fill="#73A9FF"/>
<path d="M62.808 275.36C61.472 275.36 60.332 275.064 59.388 274.472C58.444 273.872 57.72 273.056 57.216 272.024C56.72 270.992 56.468 269.824 56.46 268.52C56.468 267.192 56.728 266.016 57.24 264.992C57.76 263.96 58.496 263.152 59.448 262.568C60.4 261.976 61.532 261.68 62.844 261.68C64.316 261.68 65.56 262.052 66.576 262.796C67.6 263.532 68.268 264.54 68.58 265.82L65.7 266.6C65.476 265.904 65.104 265.364 64.584 264.98C64.064 264.588 63.472 264.392 62.808 264.392C62.056 264.392 61.436 264.572 60.948 264.932C60.46 265.284 60.1 265.772 59.868 266.396C59.636 267.02 59.52 267.728 59.52 268.52C59.52 269.752 59.796 270.748 60.348 271.508C60.9 272.268 61.72 272.648 62.808 272.648C63.576 272.648 64.18 272.472 64.62 272.12C65.068 271.768 65.404 271.26 65.628 270.596L68.58 271.256C68.18 272.576 67.48 273.592 66.48 274.304C65.48 275.008 64.256 275.36 62.808 275.36ZM70.9607 275V262.04H73.8527V267.152H79.6727V262.04H82.5647V275H79.6727V269.864H73.8527V275H70.9607ZM91.8064 275.36C90.4944 275.36 89.3424 275.076 88.3504 274.508C87.3584 273.94 86.5824 273.152 86.0224 272.144C85.4704 271.136 85.1944 269.976 85.1944 268.664C85.1944 267.248 85.4664 266.02 86.0104 264.98C86.5544 263.932 87.3104 263.12 88.2784 262.544C89.2464 261.968 90.3664 261.68 91.6384 261.68C92.9824 261.68 94.1224 261.996 95.0584 262.628C96.0024 263.252 96.7024 264.136 97.1584 265.28C97.6144 266.424 97.7864 267.772 97.6744 269.324H94.8064V268.268C94.7984 266.86 94.5504 265.832 94.0624 265.184C93.5744 264.536 92.8064 264.212 91.7584 264.212C90.5744 264.212 89.6944 264.58 89.1184 265.316C88.5424 266.044 88.2544 267.112 88.2544 268.52C88.2544 269.832 88.5424 270.848 89.1184 271.568C89.6944 272.288 90.5344 272.648 91.6384 272.648C92.3504 272.648 92.9624 272.492 93.4744 272.18C93.9944 271.86 94.3944 271.4 94.6744 270.8L97.5304 271.664C97.0344 272.832 96.2664 273.74 95.2264 274.388C94.1944 275.036 93.0544 275.36 91.8064 275.36ZM87.3424 269.324V267.14H96.2584V269.324H87.3424ZM100.352 275V262.04H109.592V264.752H103.244V275H100.352Z" fill="#73A9FF"/>
<path d="M340.74 585.5L345.48 578.948L340.836 572.54H344.244L347.16 576.68L350.028 572.54H353.436L348.792 578.948L353.556 585.5H350.148L347.16 581.216L344.148 585.5H340.74ZM360.724 585.86C359.428 585.86 358.296 585.568 357.328 584.984C356.36 584.4 355.608 583.596 355.072 582.572C354.544 581.54 354.28 580.356 354.28 579.02C354.28 577.66 354.552 576.468 355.096 575.444C355.64 574.42 356.396 573.62 357.364 573.044C358.332 572.468 359.452 572.18 360.724 572.18C362.028 572.18 363.164 572.472 364.132 573.056C365.1 573.64 365.852 574.448 366.388 575.48C366.924 576.504 367.192 577.684 367.192 579.02C367.192 580.364 366.92 581.552 366.376 582.584C365.84 583.608 365.088 584.412 364.12 584.996C363.152 585.572 362.02 585.86 360.724 585.86ZM360.724 583.148C361.876 583.148 362.732 582.764 363.292 581.996C363.852 581.228 364.132 580.236 364.132 579.02C364.132 577.764 363.848 576.764 363.28 576.02C362.712 575.268 361.86 574.892 360.724 574.892C359.948 574.892 359.308 575.068 358.804 575.42C358.308 575.764 357.94 576.248 357.7 576.872C357.46 577.488 357.34 578.204 357.34 579.02C357.34 580.276 357.624 581.28 358.192 582.032C358.768 582.776 359.612 583.148 360.724 583.148ZM368.636 585.5V583.076C369.108 583.164 369.472 583.156 369.728 583.052C369.984 582.94 370.176 582.732 370.304 582.428C370.432 582.124 370.544 581.72 370.64 581.216C370.768 580.504 370.88 579.684 370.976 578.756C371.08 577.828 371.168 576.836 371.24 575.78C371.32 574.724 371.392 573.644 371.456 572.54H380.996V585.5H378.116V575.252H374C373.96 575.772 373.912 576.356 373.856 577.004C373.8 577.644 373.74 578.292 373.676 578.948C373.612 579.604 373.54 580.228 373.46 580.82C373.388 581.404 373.312 581.904 373.232 582.32C373.048 583.256 372.784 583.996 372.44 584.54C372.104 585.084 371.632 585.432 371.024 585.584C370.416 585.744 369.62 585.716 368.636 585.5ZM390.092 585.86C388.796 585.86 387.664 585.568 386.696 584.984C385.728 584.4 384.976 583.596 384.44 582.572C383.912 581.54 383.648 580.356 383.648 579.02C383.648 577.66 383.92 576.468 384.464 575.444C385.008 574.42 385.764 573.62 386.732 573.044C387.7 572.468 388.82 572.18 390.092 572.18C391.396 572.18 392.532 572.472 393.5 573.056C394.468 573.64 395.22 574.448 395.756 575.48C396.292 576.504 396.56 577.684 396.56 579.02C396.56 580.364 396.288 581.552 395.744 582.584C395.208 583.608 394.456 584.412 393.488 584.996C392.52 585.572 391.388 585.86 390.092 585.86ZM390.092 583.148C391.244 583.148 392.1 582.764 392.66 581.996C393.22 581.228 393.5 580.236 393.5 579.02C393.5 577.764 393.216 576.764 392.648 576.02C392.08 575.268 391.228 574.892 390.092 574.892C389.316 574.892 388.676 575.068 388.172 575.42C387.676 575.764 387.308 576.248 387.068 576.872C386.828 577.488 386.708 578.204 386.708 579.02C386.708 580.276 386.992 581.28 387.56 582.032C388.136 582.776 388.98 583.148 390.092 583.148ZM398.243 588.38V583.232C398.947 583.232 399.447 582.992 399.743 582.512C400.039 582.032 400.275 581.2 400.451 580.016C400.563 579.312 400.655 578.568 400.727 577.784C400.799 577 400.859 576.172 400.907 575.3C400.963 574.428 401.011 573.508 401.051 572.54H410.699V583.232H412.007V588.38H409.271V585.5H400.967V588.38H398.243ZM402.119 583.232H407.819V574.808H403.583C403.559 575.288 403.531 575.78 403.499 576.284C403.467 576.78 403.431 577.276 403.391 577.772C403.351 578.268 403.307 578.744 403.259 579.2C403.219 579.648 403.171 580.064 403.115 580.448C403.027 581.12 402.919 581.672 402.791 582.104C402.663 582.536 402.439 582.912 402.119 583.232Z" fill="#73A9FF"/>
<path d="M237.745 500.637L243.854 530.326L215.089 520.772L237.745 500.637ZM87.8127 549.979C105.282 565.305 133.166 574.461 160.304 571.639C187.302 568.832 213.46 554.195 227.906 521.976L232.697 524.124C217.402 558.235 189.499 573.882 160.846 576.861C132.334 579.826 102.978 570.268 84.3504 553.926L87.8127 549.979Z" fill="#73A9FF"/>
<path d="M359.828 559.452L374.238 532.785L343.939 533.639L359.828 559.452ZM284.551 476.054C293.696 471.661 302.475 468.201 310.566 466.702C318.637 465.206 325.82 465.698 331.971 468.96C338.111 472.216 343.615 478.44 347.92 489.198C352.235 499.981 355.274 515.157 356.542 536L361.783 535.681C360.497 514.55 357.399 498.755 352.794 487.247C348.179 475.713 341.979 468.324 334.43 464.321C326.893 460.324 318.401 459.911 309.61 461.54C300.84 463.165 291.57 466.858 282.278 471.322L284.551 476.054Z" fill="#73A9FF"/>
<path d="M296.83 211.828L294.293 242.032L269.404 224.733L296.83 211.828ZM333.361 362.933C310.303 362.855 292.835 358.582 280.287 350.99C267.668 343.357 260.19 332.462 257.033 319.571C250.78 294.044 261.522 261.065 281.128 229.825L285.575 232.615C266.19 263.504 256.399 294.914 262.132 318.322C264.968 329.898 271.613 339.607 283.004 346.499C294.466 353.433 310.896 357.607 333.379 357.683L333.361 362.933Z" fill="#73A9FF"/>
<path d="M185.829 158.577L210.391 140.815L182.728 128.425L185.829 158.577ZM307.317 174.048C309.57 148.763 288.136 130.305 263.607 122.563C239.045 114.81 209.378 117.101 193.507 135.291L197.463 138.743C211.347 122.83 238.376 120.105 262.027 127.57C285.711 135.045 304.008 152.038 302.088 173.582L307.317 174.048Z" fill="#73A9FF"/>
<path d="M68.8301 244.828L80.7451 216.957L50.6508 220.573L68.8301 244.828ZM152.761 151.877C128.561 136.147 105.344 137.234 88.5162 150.951C71.8901 164.503 62.1431 189.876 63.3872 221.466L68.6331 221.259C67.4293 190.691 76.9056 167.188 91.8332 155.02C106.559 143.017 127.226 141.541 149.899 156.278L152.761 151.877Z" fill="#73A9FF"/>
<path d="M68.4551 510.328L70.0898 480.061L43.0606 493.778L68.4551 510.328ZM48.327 286.791C28.151 314.727 22.4763 349.706 25.5218 385.531C28.5678 421.361 40.3505 458.268 55.3824 490.367L60.1369 488.14C45.2893 456.435 33.7328 420.138 30.7529 385.086C27.7725 350.027 33.3852 316.446 52.5831 289.864L48.327 286.791Z" fill="#73A9FF"/>
<path d="M378.955 377.953L405.606 392.392L379.775 408.253L378.955 377.953ZM375.607 559.181C387.907 539.598 397.355 512.337 400.649 483.53C403.942 454.724 401.055 424.604 388.945 399.212L393.684 396.952C406.331 423.47 409.236 454.642 405.865 484.127C402.494 513.611 392.822 541.643 380.053 561.973L375.607 559.181Z" fill="#73A9FF"/>
<g filter="url(#filter0_f_543_187)">
<circle cx="449.625" cy="341.625" r="157.875" fill="#0500FF" fill-opacity="0.28"/>
</g>
<g filter="url(#filter1_f_543_187)">
<circle cx="354.375" cy="637.125" r="157.875" fill="#0500FF" fill-opacity="0.28"/>
</g>
<g filter="url(#filter2_f_543_187)">
<circle cx="-10.125" cy="428.625" r="157.875" fill="#0500FF" fill-opacity="0.28"/>
</g>
<g filter="url(#filter3_f_543_187)">
<circle cx="-10.125" cy="98.625" r="157.875" fill="#0500FF" fill-opacity="0.28"/>
</g>
<g filter="url(#filter4_f_543_187)">
<circle cx="343.875" cy="13.125" r="157.875" fill="#0500FF" fill-opacity="0.28"/>
</g>
<g filter="url(#filter5_f_543_187)">
<circle cx="147.932" cy="603.932" r="128.106" transform="rotate(-78.5812 147.932 603.932)" fill="#0500FF" fill-opacity="0.28"/>
</g>
</g>
<defs>
<filter id="filter0_f_543_187" x="214.2" y="106.2" width="470.85" height="470.85" filterUnits="userSpaceOnUse" color-interpolation-filters="sRGB">
<feFlood flood-opacity="0" result="BackgroundImageFix"/>
<feBlend mode="normal" in="SourceGraphic" in2="BackgroundImageFix" result="shape"/>
<feGaussianBlur stdDeviation="38.775" result="effect1_foregroundBlur_543_187"/>
</filter>
<filter id="filter1_f_543_187" x="118.95" y="401.7" width="470.85" height="470.85" filterUnits="userSpaceOnUse" color-interpolation-filters="sRGB">
<feFlood flood-opacity="0" result="BackgroundImageFix"/>
<feBlend mode="normal" in="SourceGraphic" in2="BackgroundImageFix" result="shape"/>
<feGaussianBlur stdDeviation="38.775" result="effect1_foregroundBlur_543_187"/>
</filter>
<filter id="filter2_f_543_187" x="-245.55" y="193.2" width="470.85" height="470.85" filterUnits="userSpaceOnUse" color-interpolation-filters="sRGB">
<feFlood flood-opacity="0" result="BackgroundImageFix"/>
<feBlend mode="normal" in="SourceGraphic" in2="BackgroundImageFix" result="shape"/>
<feGaussianBlur stdDeviation="38.775" result="effect1_foregroundBlur_543_187"/>
</filter>
<filter id="filter3_f_543_187" x="-245.55" y="-136.8" width="470.85" height="470.85" filterUnits="userSpaceOnUse" color-interpolation-filters="sRGB">
<feFlood flood-opacity="0" result="BackgroundImageFix"/>
<feBlend mode="normal" in="SourceGraphic" in2="BackgroundImageFix" result="shape"/>
<feGaussianBlur stdDeviation="38.775" result="effect1_foregroundBlur_543_187"/>
</filter>
<filter id="filter4_f_543_187" x="108.45" y="-222.3" width="470.85" height="470.85" filterUnits="userSpaceOnUse" color-interpolation-filters="sRGB">
<feFlood flood-opacity="0" result="BackgroundImageFix"/>
<feBlend mode="normal" in="SourceGraphic" in2="BackgroundImageFix" result="shape"/>
<feGaussianBlur stdDeviation="38.775" result="effect1_foregroundBlur_543_187"/>
</filter>
<filter id="filter5_f_543_187" x="-57.7492" y="398.252" width="411.362" height="411.362" filterUnits="userSpaceOnUse" color-interpolation-filters="sRGB">
<feFlood flood-opacity="0" result="BackgroundImageFix"/>
<feBlend mode="normal" in="SourceGraphic" in2="BackgroundImageFix" result="shape"/>
<feGaussianBlur stdDeviation="38.775" result="effect1_foregroundBlur_543_187"/>
</filter>
<clipPath id="clip0_543_187">
<rect width="450" height="675" fill="white"/>
</clipPath>
</defs>
</svg>
